M48
INCH
T37C0.035
T36C0.020
T35C0.038
T34C0.012
%
T34
X035000Y019961
X035039Y020472
X035079Y019449
X035118Y021063
X035354Y021614
X035472Y025079
X035748Y022362
X035945Y021772
X037491Y023589
X038150Y022520
X038150Y022008
X038150Y021496
X038661Y022520
X038661Y022008
X038661Y021496
X039173Y022520
X039173Y022008
X039173Y021496
X039302Y029164
X040766Y028885
X040787Y029331
X040925Y021673
X042323Y021457
X042362Y023937
X042638Y026378
X042756Y027362
X043307Y022441
X043307Y021929
X043344Y023032
X043740Y025945
X043858Y020118
X044094Y026063
X044449Y023819
X044685Y027165
X044823Y023465
X045472Y023740
X045512Y024980
X045512Y021890
X045512Y021496
X045630Y018425
X045630Y018150
X045630Y017874
X046131Y026028
X047047Y025945
T36
X035079Y018937
X040394Y025630
X041299Y018937
X042598Y020453
X042677Y018701
X042776Y016614
X042874Y019803
X043602Y019154
X043681Y017776
X043996Y019488
X044646Y017677
X045079Y020079
X046437Y019705
X047205Y017126
X047224Y016634
T37
X036732Y028071
X040827Y019488
X041654Y031437
X044764Y031417
T35
X034811Y031732
X034811Y030677
X035811Y031732
X035811Y030677
X036811Y031732
X036811Y030677
X037811Y031732
X037811Y030677
X038811Y031732
X038811Y030677
X039811Y031732
X044764Y030610
X044764Y029610
X046480Y031732
X047480Y031732
M30
