G04 start of page 9 for group -4078 idx -4078 *
G04 Title: (unknown), bottomsilk *
G04 Creator: pcb 4.0.2 *
G04 CreationDate: Sun Feb  4 07:02:53 2018 UTC *
G04 For: jeroen *
G04 Format: Gerber/RS-274X *
G04 PCB-Dimensions (mil): 6000.00 5000.00 *
G04 PCB-Coordinate-Origin: lower left *
%MOIN*%
%FSLAX25Y25*%
%LNBOTTOMSILK*%
%ADD48C,0.0059*%
G54D48*X347244Y165608D02*X347644Y166008D01*
X347244Y163208D02*X347644Y162808D01*
X347244Y163208D02*Y165608D01*
X349164Y166008D02*X350204D01*
X348604Y165448D02*X349164Y166008D01*
X348604Y163368D02*Y165448D01*
Y163368D02*X349164Y162808D01*
X350204D01*
X351164D02*X351564Y163208D01*
Y165608D01*
X351164Y166008D02*X351564Y165608D01*
X353964Y163208D02*X354364Y162808D01*
X355564D01*
X355964Y163208D01*
Y164008D01*
X353964Y166008D02*X355964Y164008D01*
X353964Y166008D02*X355964D01*
X356924Y165608D02*X357324Y166008D01*
X356924Y163208D02*Y165608D01*
Y163208D02*X357324Y162808D01*
X358124D01*
X358524Y163208D01*
Y165608D01*
X358124Y166008D02*X358524Y165608D01*
X357324Y166008D02*X358124D01*
X356924Y165208D02*X358524Y163608D01*
X359484Y163448D02*X360124Y162808D01*
Y166008D01*
X359484D02*X360684D01*
X361644Y165608D02*X362044Y166008D01*
X361644Y164968D02*Y165608D01*
Y164968D02*X362204Y164408D01*
X362684D01*
X363244Y164968D01*
Y165608D01*
X362844Y166008D02*X363244Y165608D01*
X362044Y166008D02*X362844D01*
X361644Y163848D02*X362204Y164408D01*
X361644Y163208D02*Y163848D01*
Y163208D02*X362044Y162808D01*
X362844D01*
X363244Y163208D01*
Y163848D01*
X362684Y164408D02*X363244Y163848D01*
X348450Y169501D02*X348850Y169901D01*
X347250Y169501D02*X348450D01*
X346850Y169901D02*X347250Y169501D01*
X346850Y169901D02*Y170701D01*
X347250Y171101D01*
X348450D01*
X348850Y171501D01*
Y172301D01*
X348450Y172701D02*X348850Y172301D01*
X347250Y172701D02*X348450D01*
X346850Y172301D02*X347250Y172701D01*
X350210Y169501D02*Y172701D01*
X349810Y169501D02*X351410D01*
X351810Y169901D01*
Y170701D01*
X351410Y171101D02*X351810Y170701D01*
X350210Y171101D02*X351410D01*
X352770Y169501D02*X354370D01*
X354770Y169901D01*
Y170701D01*
X354370Y171101D02*X354770Y170701D01*
X353170Y171101D02*X354370D01*
X353170Y169501D02*Y172701D01*
X353810Y171101D02*X354770Y172701D01*
X355730Y169501D02*X356530D01*
X356130D02*Y172701D01*
X355730D02*X356530D01*
X357490Y169501D02*X359090D01*
X358290D02*Y172701D01*
X360050Y170941D02*X361250D01*
X360050Y172701D02*X361650D01*
X360050Y169501D02*Y172701D01*
Y169501D02*X361650D01*
X364210D02*X364610Y169901D01*
X363010Y169501D02*X364210D01*
X362610Y169901D02*X363010Y169501D01*
X362610Y169901D02*Y170701D01*
X363010Y171101D01*
X364210D01*
X364610Y171501D01*
Y172301D01*
X364210Y172701D02*X364610Y172301D01*
X363010Y172701D02*X364210D01*
X362610Y172301D02*X363010Y172701D01*
X365570Y169501D02*Y172701D01*
Y169501D02*X366770Y171101D01*
X367970Y169501D01*
Y172701D01*
X368930Y169901D02*Y172301D01*
Y169901D02*X369330Y169501D01*
X370130D01*
X370530Y169901D01*
Y172301D01*
X370130Y172701D02*X370530Y172301D01*
X369330Y172701D02*X370130D01*
X368930Y172301D02*X369330Y172701D01*
X371890Y169501D02*Y172701D01*
X372930Y169501D02*X373490Y170061D01*
Y172141D01*
X372930Y172701D02*X373490Y172141D01*
X371490Y172701D02*X372930D01*
X371490Y169501D02*X372930D01*
X376050D02*X376450Y169901D01*
X374850Y169501D02*X376050D01*
X374450Y169901D02*X374850Y169501D01*
X374450Y169901D02*Y170701D01*
X374850Y171101D01*
X376050D01*
X376450Y171501D01*
Y172301D01*
X376050Y172701D02*X376450Y172301D01*
X374850Y172701D02*X376050D01*
X374450Y172301D02*X374850Y172701D01*
X377410D02*X377810D01*
X379330D02*X380370D01*
X378770Y172141D02*X379330Y172701D01*
X378770Y170061D02*Y172141D01*
Y170061D02*X379330Y169501D01*
X380370D01*
X381330Y169901D02*Y172301D01*
Y169901D02*X381730Y169501D01*
X382530D01*
X382930Y169901D01*
Y172301D01*
X382530Y172701D02*X382930Y172301D01*
X381730Y172701D02*X382530D01*
X381330Y172301D02*X381730Y172701D01*
X383890Y169501D02*Y172701D01*
Y169501D02*X385090Y171101D01*
X386290Y169501D01*
Y172701D01*
M02*
