G04 start of page 3 for group 5 idx 5 *
G04 Title: (unknown), bottom *
G04 Creator: pcb 4.0.2 *
G04 CreationDate: Sun Feb  4 07:02:53 2018 UTC *
G04 For: jeroen *
G04 Format: Gerber/RS-274X *
G04 PCB-Dimensions (mil): 6000.00 5000.00 *
G04 PCB-Coordinate-Origin: lower left *
%MOIN*%
%FSLAX25Y25*%
%LNBOTTOM*%
%ADD32C,0.0380*%
%ADD31C,0.0350*%
%ADD30C,0.0118*%
%ADD29C,0.0200*%
%ADD28C,0.0360*%
%ADD27C,0.0600*%
%ADD26C,0.0240*%
%ADD25C,0.0100*%
%ADD24C,0.0250*%
%ADD23C,0.0060*%
%ADD22C,0.0001*%
G54D22*G36*
X454769Y311340D02*X457795Y308314D01*
X457853Y308247D01*
X458122Y308017D01*
X458122Y308017D01*
X458309Y307902D01*
X458424Y307832D01*
X458751Y307696D01*
X459096Y307613D01*
X459096D01*
X459449Y307586D01*
X459537Y307593D01*
X475309D01*
Y237940D01*
X471115Y233746D01*
X467411D01*
X467323Y233753D01*
X466970Y233725D01*
X466625Y233643D01*
X466298Y233507D01*
X465996Y233322D01*
X465996Y233322D01*
X465727Y233092D01*
X465670Y233025D01*
X464219Y231575D01*
X464152Y231517D01*
X463922Y231248D01*
X463737Y230946D01*
X463602Y230619D01*
X463519Y230274D01*
X463519Y230274D01*
X463491Y229921D01*
X463498Y229833D01*
Y203238D01*
X463491Y203150D01*
X463519Y202797D01*
Y202797D01*
X463602Y202452D01*
X463737Y202125D01*
X463807Y202010D01*
X463922Y201823D01*
X463922Y201823D01*
X464152Y201554D01*
X464219Y201496D01*
X466457Y199259D01*
X466514Y199192D01*
X466784Y198962D01*
X466784Y198961D01*
X466971Y198847D01*
X467086Y198776D01*
X467413Y198641D01*
X467757Y198558D01*
X467757D01*
X468110Y198530D01*
X468198Y198537D01*
X471115D01*
X474128Y195525D01*
Y176523D01*
X471642Y174037D01*
X471608Y174034D01*
X471179Y173931D01*
X470772Y173762D01*
X470396Y173532D01*
X470061Y173246D01*
X469775Y172911D01*
X469660Y172722D01*
X454769D01*
Y195547D01*
X462005D01*
X462098Y195396D01*
X462384Y195061D01*
X462719Y194775D01*
X463095Y194545D01*
X463502Y194376D01*
X463931Y194273D01*
X464370Y194239D01*
X464809Y194273D01*
X465238Y194376D01*
X465645Y194545D01*
X466021Y194775D01*
X466356Y195061D01*
X466642Y195396D01*
X466873Y195772D01*
X467041Y196179D01*
X467144Y196608D01*
X467170Y197047D01*
X467144Y197487D01*
X467041Y197915D01*
X466873Y198322D01*
X466642Y198698D01*
X466356Y199033D01*
X466021Y199319D01*
X465645Y199550D01*
X465238Y199718D01*
X464809Y199821D01*
X464370Y199856D01*
X463931Y199821D01*
X463502Y199718D01*
X463095Y199550D01*
X462719Y199319D01*
X462384Y199033D01*
X462098Y198698D01*
X462005Y198547D01*
X454769D01*
Y213192D01*
X454836Y213176D01*
X455118Y213154D01*
X455401Y213176D01*
X455676Y213242D01*
X455938Y213351D01*
X456180Y213499D01*
X456396Y213683D01*
X456580Y213899D01*
X456728Y214140D01*
X456836Y214402D01*
X456902Y214678D01*
X456919Y214961D01*
X456902Y215243D01*
X456836Y215519D01*
X456728Y215781D01*
X456580Y216022D01*
X456396Y216238D01*
X456180Y216422D01*
X455938Y216570D01*
X455676Y216679D01*
X455401Y216745D01*
X455118Y216767D01*
X454836Y216745D01*
X454769Y216729D01*
Y217129D01*
X454836Y217113D01*
X455118Y217091D01*
X455401Y217113D01*
X455676Y217180D01*
X455938Y217288D01*
X456180Y217436D01*
X456396Y217620D01*
X456580Y217836D01*
X456728Y218077D01*
X456836Y218339D01*
X456902Y218615D01*
X456919Y218898D01*
X456902Y219180D01*
X456836Y219456D01*
X456728Y219718D01*
X456580Y219960D01*
X456396Y220175D01*
X456180Y220359D01*
X455938Y220507D01*
X455676Y220616D01*
X455401Y220682D01*
X455118Y220704D01*
X454836Y220682D01*
X454769Y220666D01*
Y235599D01*
X455007Y235617D01*
X455283Y235683D01*
X455545Y235792D01*
X455786Y235940D01*
X456002Y236124D01*
X456186Y236340D01*
X456334Y236581D01*
X456443Y236843D01*
X456509Y237119D01*
X456525Y237402D01*
X456509Y237684D01*
X456504Y237704D01*
X461926Y243126D01*
X461953Y243149D01*
X462045Y243257D01*
X462119Y243378D01*
X462174Y243508D01*
X462207Y243646D01*
X462218Y243787D01*
X462215Y243823D01*
Y258723D01*
X462377Y258822D01*
X462592Y259006D01*
X462776Y259222D01*
X462925Y259463D01*
X463033Y259725D01*
X463099Y260001D01*
X463116Y260283D01*
X463099Y260566D01*
X463033Y260842D01*
X462925Y261104D01*
X462776Y261345D01*
X462592Y261561D01*
X462377Y261745D01*
X462135Y261893D01*
X461873Y262002D01*
X461598Y262068D01*
X461315Y262090D01*
X461032Y262068D01*
X460757Y262002D01*
X460495Y261893D01*
X460253Y261745D01*
X460038Y261561D01*
X459853Y261345D01*
X459705Y261104D01*
X459597Y260842D01*
X459531Y260566D01*
X459508Y260283D01*
X459531Y260001D01*
X459597Y259725D01*
X459705Y259463D01*
X459853Y259222D01*
X460038Y259006D01*
X460253Y258822D01*
X460415Y258723D01*
Y244160D01*
X455348Y239093D01*
X455283Y239120D01*
X455007Y239186D01*
X454769Y239205D01*
Y311340D01*
G37*
G36*
X468553Y229246D02*X471959D01*
X472047Y229239D01*
X472400Y229267D01*
X472400Y229267D01*
X472745Y229350D01*
X473072Y229485D01*
X473374Y229670D01*
X473643Y229900D01*
X473701Y229967D01*
X479088Y235355D01*
X479155Y235412D01*
X479385Y235681D01*
X479385Y235681D01*
X479570Y235983D01*
X479706Y236310D01*
X479788Y236655D01*
X479816Y237008D01*
X479809Y237096D01*
Y309754D01*
X479816Y309843D01*
X479809Y309931D01*
Y314479D01*
X479816Y314567D01*
X479788Y314920D01*
X479706Y315264D01*
X479666Y315360D01*
X479570Y315592D01*
X479455Y315779D01*
X479385Y315894D01*
X479385Y315894D01*
X479155Y316163D01*
X479153Y316165D01*
X479261Y316617D01*
X479303Y317323D01*
X479261Y318029D01*
X479096Y318718D01*
X478825Y319372D01*
X478455Y319976D01*
X477995Y320515D01*
X477456Y320975D01*
X476852Y321345D01*
X476198Y321616D01*
X475509Y321781D01*
X474803Y321837D01*
X474097Y321781D01*
X473408Y321616D01*
X472754Y321345D01*
X472150Y320975D01*
X471611Y320515D01*
X471151Y319976D01*
X470781Y319372D01*
X470510Y318718D01*
X470345Y318029D01*
X470289Y317323D01*
X470345Y316617D01*
X470510Y315928D01*
X470781Y315274D01*
X471151Y314670D01*
X471611Y314131D01*
X472150Y313671D01*
X472754Y313301D01*
X473408Y313030D01*
X474097Y312865D01*
X474803Y312809D01*
X475309Y312849D01*
Y312093D01*
X468553D01*
Y315071D01*
X468671Y315080D01*
X468786Y315107D01*
X468895Y315153D01*
X468995Y315214D01*
X469085Y315291D01*
X469162Y315381D01*
X469223Y315481D01*
X469269Y315590D01*
X469296Y315705D01*
X469303Y315823D01*
Y318823D01*
X469296Y318941D01*
X469269Y319055D01*
X469223Y319164D01*
X469162Y319265D01*
X469085Y319355D01*
X468995Y319431D01*
X468895Y319493D01*
X468786Y319538D01*
X468671Y319566D01*
X468553Y319575D01*
Y322441D01*
X479921D01*
Y228740D01*
X468553D01*
Y229246D01*
G37*
G36*
X479921Y157874D02*X468553D01*
Y168222D01*
X471172D01*
X471260Y168216D01*
X471613Y168243D01*
X471613Y168243D01*
X471957Y168326D01*
X472284Y168461D01*
X472300Y168471D01*
X472487Y168486D01*
X472915Y168589D01*
X473322Y168757D01*
X473698Y168988D01*
X474033Y169274D01*
X474319Y169609D01*
X474550Y169985D01*
X474718Y170392D01*
X474821Y170820D01*
X474823Y170854D01*
X477907Y173937D01*
X477974Y173995D01*
X478204Y174264D01*
X478204Y174264D01*
X478389Y174566D01*
X478524Y174893D01*
X478607Y175237D01*
X478635Y175591D01*
X478628Y175679D01*
Y196369D01*
X478635Y196457D01*
X478607Y196810D01*
X478524Y197154D01*
X478485Y197250D01*
X478389Y197481D01*
X478274Y197669D01*
X478204Y197783D01*
X478204Y197783D01*
X477974Y198053D01*
X477907Y198110D01*
X473701Y202316D01*
X473643Y202383D01*
X473374Y202613D01*
X473374Y202613D01*
X473259Y202684D01*
X473072Y202798D01*
X472841Y202894D01*
X472745Y202934D01*
X472400Y203017D01*
X472047Y203044D01*
X471959Y203037D01*
X469042D01*
X468553Y203526D01*
Y204331D01*
X479921D01*
Y157874D01*
G37*
G36*
X468553Y312093D02*X464803D01*
Y312823D01*
X466303D01*
X466421Y312830D01*
X466536Y312857D01*
X466645Y312903D01*
X466745Y312964D01*
X466835Y313041D01*
X466912Y313131D01*
X466973Y313231D01*
X467019Y313340D01*
X467046Y313455D01*
X467055Y313573D01*
X467046Y313691D01*
X467019Y313805D01*
X466973Y313914D01*
X466912Y314015D01*
X466835Y314105D01*
X466745Y314181D01*
X466645Y314243D01*
X466536Y314288D01*
X466421Y314316D01*
X466303Y314323D01*
X464803D01*
Y320323D01*
X466303D01*
X466421Y320330D01*
X466536Y320357D01*
X466645Y320403D01*
X466745Y320464D01*
X466835Y320541D01*
X466912Y320631D01*
X466973Y320731D01*
X467019Y320840D01*
X467046Y320955D01*
X467055Y321073D01*
X467046Y321191D01*
X467019Y321305D01*
X466973Y321414D01*
X466912Y321515D01*
X466835Y321605D01*
X466745Y321681D01*
X466645Y321743D01*
X466536Y321788D01*
X466421Y321816D01*
X466303Y321823D01*
X464803D01*
Y322441D01*
X468553D01*
Y319575D01*
X468435Y319566D01*
X468321Y319538D01*
X468212Y319493D01*
X468111Y319431D01*
X468021Y319355D01*
X467945Y319265D01*
X467883Y319164D01*
X467838Y319055D01*
X467810Y318941D01*
X467803Y318823D01*
Y315823D01*
X467810Y315705D01*
X467838Y315590D01*
X467883Y315481D01*
X467945Y315381D01*
X468021Y315291D01*
X468111Y315214D01*
X468212Y315153D01*
X468321Y315107D01*
X468435Y315080D01*
X468553Y315071D01*
Y312093D01*
G37*
G36*
Y203526D02*X467998Y204082D01*
Y228989D01*
X468255Y229246D01*
X468553D01*
Y228740D01*
X468110D01*
Y204331D01*
X468553D01*
Y203526D01*
G37*
G36*
Y157874D02*X464803D01*
Y168222D01*
X468553D01*
Y157874D01*
G37*
G36*
X464803Y312093D02*X461053D01*
Y315071D01*
X461171Y315080D01*
X461286Y315107D01*
X461395Y315153D01*
X461495Y315214D01*
X461585Y315291D01*
X461662Y315381D01*
X461723Y315481D01*
X461769Y315590D01*
X461796Y315705D01*
X461803Y315823D01*
Y318823D01*
X461796Y318941D01*
X461769Y319055D01*
X461723Y319164D01*
X461662Y319265D01*
X461585Y319355D01*
X461495Y319431D01*
X461395Y319493D01*
X461286Y319538D01*
X461171Y319566D01*
X461053Y319575D01*
Y322441D01*
X464803D01*
Y321823D01*
X463303D01*
X463185Y321816D01*
X463071Y321788D01*
X462962Y321743D01*
X462861Y321681D01*
X462771Y321605D01*
X462695Y321515D01*
X462633Y321414D01*
X462588Y321305D01*
X462560Y321191D01*
X462551Y321073D01*
X462560Y320955D01*
X462588Y320840D01*
X462633Y320731D01*
X462695Y320631D01*
X462771Y320541D01*
X462861Y320464D01*
X462962Y320403D01*
X463071Y320357D01*
X463185Y320330D01*
X463303Y320323D01*
X464803D01*
Y314323D01*
X463303D01*
X463185Y314316D01*
X463071Y314288D01*
X462962Y314243D01*
X462861Y314181D01*
X462771Y314105D01*
X462695Y314015D01*
X462633Y313914D01*
X462588Y313805D01*
X462560Y313691D01*
X462551Y313573D01*
X462560Y313455D01*
X462588Y313340D01*
X462633Y313231D01*
X462695Y313131D01*
X462771Y313041D01*
X462861Y312964D01*
X462962Y312903D01*
X463071Y312857D01*
X463185Y312830D01*
X463303Y312823D01*
X464803D01*
Y312093D01*
G37*
G36*
X461053D02*X460381D01*
X456771Y315702D01*
X456714Y315769D01*
X456445Y315999D01*
X456445Y315999D01*
X456330Y316069D01*
X456143Y316184D01*
X455911Y316280D01*
X455816Y316320D01*
X455471Y316402D01*
X455118Y316430D01*
X455030Y316423D01*
X454769D01*
Y322441D01*
X461053D01*
Y319575D01*
X460935Y319566D01*
X460821Y319538D01*
X460712Y319493D01*
X460611Y319431D01*
X460521Y319355D01*
X460445Y319265D01*
X460383Y319164D01*
X460338Y319055D01*
X460310Y318941D01*
X460303Y318823D01*
Y315823D01*
X460310Y315705D01*
X460338Y315590D01*
X460383Y315481D01*
X460445Y315381D01*
X460521Y315291D01*
X460611Y315214D01*
X460712Y315153D01*
X460821Y315107D01*
X460935Y315080D01*
X461053Y315071D01*
Y312093D01*
G37*
G36*
X464803Y157874D02*X454769D01*
Y168222D01*
X464803D01*
Y157874D01*
G37*
G36*
X454769Y216729D02*X454560Y216679D01*
X454298Y216570D01*
X454056Y216422D01*
X453841Y216238D01*
X453657Y216022D01*
X453557Y215861D01*
X440942D01*
Y217998D01*
X453557D01*
X453657Y217836D01*
X453841Y217620D01*
X454056Y217436D01*
X454298Y217288D01*
X454560Y217180D01*
X454769Y217129D01*
Y216729D01*
G37*
G36*
Y198547D02*X442185D01*
X442126Y198552D01*
X441891Y198533D01*
X441661Y198478D01*
X441443Y198388D01*
X441242Y198265D01*
X441241Y198264D01*
X441062Y198111D01*
X441024Y198066D01*
X440942Y197985D01*
Y214061D01*
X453557D01*
X453657Y213899D01*
X453841Y213683D01*
X454056Y213499D01*
X454298Y213351D01*
X454560Y213242D01*
X454769Y213192D01*
Y198547D01*
G37*
G36*
Y172722D02*X454082D01*
X449102Y177702D01*
X448959Y178047D01*
X448729Y178423D01*
X448443Y178758D01*
X448108Y179044D01*
X447732Y179274D01*
X447325Y179443D01*
X446896Y179546D01*
X446457Y179580D01*
X446017Y179546D01*
X445589Y179443D01*
X445182Y179274D01*
X444806Y179044D01*
X444471Y178758D01*
X444184Y178423D01*
X444092Y178272D01*
X440942D01*
Y192258D01*
X441236Y192379D01*
X441612Y192610D01*
X441947Y192896D01*
X442233Y193231D01*
X442463Y193607D01*
X442632Y194014D01*
X442735Y194443D01*
X442761Y194882D01*
X442735Y195321D01*
X442693Y195493D01*
X442747Y195547D01*
X454769D01*
Y172722D01*
G37*
G36*
X447631Y232944D02*X447670Y232928D01*
X447946Y232861D01*
X448228Y232839D01*
X448511Y232861D01*
X448787Y232928D01*
X449049Y233036D01*
X449290Y233184D01*
X449506Y233368D01*
X449690Y233584D01*
X449838Y233826D01*
X449946Y234087D01*
X450013Y234363D01*
X450029Y234646D01*
X450013Y234928D01*
X449968Y235113D01*
X451357Y236502D01*
X453164D01*
X453263Y236340D01*
X453447Y236124D01*
X453663Y235940D01*
X453904Y235792D01*
X454166Y235683D01*
X454442Y235617D01*
X454724Y235595D01*
X454769Y235599D01*
Y220666D01*
X454560Y220616D01*
X454298Y220507D01*
X454056Y220359D01*
X453841Y220175D01*
X453657Y219960D01*
X453557Y219798D01*
X447631D01*
Y232944D01*
G37*
G36*
Y301609D02*X450873Y301616D01*
X451103Y301671D01*
X451321Y301762D01*
X451522Y301885D01*
X451702Y302038D01*
X451855Y302218D01*
X451978Y302419D01*
X452069Y302637D01*
X452124Y302867D01*
X452138Y303102D01*
X452124Y309338D01*
X452069Y309567D01*
X451978Y309785D01*
X451855Y309987D01*
X451702Y310166D01*
X451522Y310320D01*
X451321Y310443D01*
X451103Y310533D01*
X450873Y310588D01*
X450638Y310602D01*
X449462Y310600D01*
X449996Y310927D01*
X450475Y311336D01*
X450884Y311815D01*
X450950Y311923D01*
X454186D01*
X454769Y311340D01*
Y239205D01*
X454724Y239208D01*
X454442Y239186D01*
X454166Y239120D01*
X453904Y239011D01*
X453663Y238863D01*
X453447Y238679D01*
X453263Y238463D01*
X453164Y238302D01*
X451020D01*
X450984Y238304D01*
X450843Y238293D01*
X450705Y238260D01*
X450574Y238206D01*
X450454Y238132D01*
X450346Y238040D01*
X450323Y238013D01*
X448696Y236386D01*
X448511Y236430D01*
X448228Y236452D01*
X447946Y236430D01*
X447670Y236364D01*
X447631Y236348D01*
Y291589D01*
X447638Y291588D01*
X448344Y291644D01*
X449033Y291809D01*
X449687Y292080D01*
X450291Y292451D01*
X450830Y292911D01*
X451290Y293449D01*
X451660Y294053D01*
X451931Y294707D01*
X452096Y295396D01*
X452138Y296102D01*
X452096Y296808D01*
X451931Y297497D01*
X451660Y298152D01*
X451290Y298756D01*
X450830Y299294D01*
X450291Y299754D01*
X449687Y300124D01*
X449033Y300395D01*
X448344Y300561D01*
X447638Y300616D01*
X447631Y300616D01*
Y301609D01*
G37*
G36*
X454769Y316423D02*X450950D01*
X450884Y316532D01*
X450475Y317010D01*
X449996Y317419D01*
X449459Y317748D01*
X448878Y317989D01*
X448265Y318136D01*
X447638Y318186D01*
X447631Y318185D01*
Y322441D01*
X454769D01*
Y316423D01*
G37*
G36*
X447631Y318185D02*X447010Y318136D01*
X446398Y317989D01*
X445816Y317748D01*
X445279Y317419D01*
X444801Y317010D01*
X444392Y316532D01*
X444063Y315995D01*
X443822Y315413D01*
X443675Y314801D01*
X443625Y314173D01*
X443675Y313546D01*
X443822Y312933D01*
X444063Y312352D01*
X444392Y311815D01*
X444801Y311336D01*
X445279Y310927D01*
X445816Y310598D01*
X445832Y310592D01*
X444402Y310588D01*
X444173Y310533D01*
X443955Y310443D01*
X443753Y310320D01*
X443574Y310166D01*
X443421Y309987D01*
X443297Y309785D01*
X443207Y309567D01*
X443152Y309338D01*
X443138Y309102D01*
X443152Y302867D01*
X443207Y302637D01*
X443297Y302419D01*
X443421Y302218D01*
X443574Y302038D01*
X443753Y301885D01*
X443955Y301762D01*
X444173Y301671D01*
X444402Y301616D01*
X444638Y301602D01*
X447631Y301609D01*
Y300616D01*
X446932Y300561D01*
X446243Y300395D01*
X445589Y300124D01*
X444985Y299754D01*
X444446Y299294D01*
X443986Y298756D01*
X443616Y298152D01*
X443345Y297497D01*
X443179Y296808D01*
X443124Y296102D01*
X443179Y295396D01*
X443345Y294707D01*
X443616Y294053D01*
X443986Y293449D01*
X444446Y292911D01*
X444985Y292451D01*
X445589Y292080D01*
X446243Y291809D01*
X446932Y291644D01*
X447631Y291589D01*
Y236348D01*
X447408Y236255D01*
X447166Y236107D01*
X446951Y235923D01*
X446767Y235708D01*
X446619Y235466D01*
X446510Y235204D01*
X446444Y234928D01*
X446422Y234646D01*
X446444Y234363D01*
X446510Y234087D01*
X446619Y233826D01*
X446767Y233584D01*
X446951Y233368D01*
X447166Y233184D01*
X447408Y233036D01*
X447631Y232944D01*
Y219798D01*
X440942D01*
Y254635D01*
X443588Y251989D01*
Y239750D01*
X443426Y239651D01*
X443211Y239466D01*
X443027Y239251D01*
X442879Y239009D01*
X442770Y238747D01*
X442704Y238472D01*
X442682Y238189D01*
X442704Y237906D01*
X442770Y237631D01*
X442879Y237369D01*
X443027Y237127D01*
X443211Y236912D01*
X443426Y236727D01*
X443668Y236579D01*
X443930Y236471D01*
X444206Y236405D01*
X444488Y236382D01*
X444771Y236405D01*
X445046Y236471D01*
X445308Y236579D01*
X445550Y236727D01*
X445766Y236912D01*
X445950Y237127D01*
X446098Y237369D01*
X446206Y237631D01*
X446273Y237906D01*
X446289Y238189D01*
X446273Y238472D01*
X446206Y238747D01*
X446098Y239009D01*
X445950Y239251D01*
X445766Y239466D01*
X445550Y239651D01*
X445388Y239750D01*
Y252327D01*
X445391Y252362D01*
X445380Y252503D01*
X445347Y252641D01*
X445293Y252772D01*
X445247Y252846D01*
X445219Y252893D01*
X445127Y253001D01*
X445100Y253024D01*
X440942Y257181D01*
Y322441D01*
X447631D01*
Y318185D01*
G37*
G36*
X454769Y157874D02*X440942D01*
Y175272D01*
X444092D01*
X444184Y175121D01*
X444471Y174786D01*
X444806Y174499D01*
X445182Y174269D01*
X445589Y174100D01*
X446017Y173998D01*
X446457Y173963D01*
X446476Y173964D01*
X451496Y168944D01*
X451554Y168877D01*
X451823Y168647D01*
X451823Y168647D01*
X452010Y168532D01*
X452125Y168461D01*
X452452Y168326D01*
X452797Y168243D01*
X452797D01*
X453150Y168216D01*
X453238Y168222D01*
X454769D01*
Y157874D01*
G37*
G36*
X440942D02*X427752D01*
Y184383D01*
X428047Y184505D01*
X428423Y184736D01*
X428758Y185022D01*
X429044Y185357D01*
X429274Y185733D01*
X429443Y186140D01*
X429546Y186569D01*
X429572Y187008D01*
X429546Y187447D01*
X429504Y187619D01*
X429759Y187874D01*
X429804Y187912D01*
X429957Y188092D01*
X429957Y188092D01*
X430081Y188293D01*
X430171Y188511D01*
X430226Y188741D01*
X430245Y188976D01*
X430240Y189035D01*
Y195667D01*
X430391Y195759D01*
X430726Y196045D01*
X431012Y196381D01*
X431243Y196756D01*
X431411Y197164D01*
X431514Y197592D01*
X431540Y198031D01*
X431514Y198471D01*
X431411Y198899D01*
X431243Y199307D01*
X431012Y199682D01*
X430726Y200018D01*
X430391Y200304D01*
X430015Y200534D01*
X429608Y200703D01*
X429180Y200806D01*
X428740Y200840D01*
X428301Y200806D01*
X427872Y200703D01*
X427752Y200653D01*
Y229419D01*
X431880D01*
X431979Y229257D01*
X432164Y229041D01*
X432379Y228857D01*
X432621Y228709D01*
X432883Y228601D01*
X433158Y228535D01*
X433441Y228512D01*
X433724Y228535D01*
X433999Y228601D01*
X434261Y228709D01*
X434503Y228857D01*
X434718Y229041D01*
X434902Y229257D01*
X435051Y229499D01*
X435159Y229761D01*
X435225Y230036D01*
X435242Y230319D01*
X435225Y230602D01*
X435159Y230877D01*
X435051Y231139D01*
X434902Y231381D01*
X434718Y231596D01*
X434503Y231780D01*
X434261Y231929D01*
X433999Y232037D01*
X433724Y232103D01*
X433441Y232125D01*
X433158Y232103D01*
X432883Y232037D01*
X432621Y231929D01*
X432379Y231780D01*
X432164Y231596D01*
X431979Y231381D01*
X431880Y231219D01*
X427752D01*
Y262615D01*
X427839Y262718D01*
X427988Y262959D01*
X428096Y263221D01*
X428162Y263497D01*
X428179Y263780D01*
X428162Y264062D01*
X428096Y264338D01*
X427988Y264600D01*
X427839Y264841D01*
X427752Y264944D01*
Y322441D01*
X440942D01*
Y257181D01*
X439142Y258982D01*
X439186Y259166D01*
X439203Y259449D01*
X439186Y259731D01*
X439120Y260007D01*
X439011Y260269D01*
X438863Y260511D01*
X438679Y260726D01*
X438463Y260910D01*
X438222Y261058D01*
X437960Y261167D01*
X437684Y261233D01*
X437402Y261255D01*
X437119Y261233D01*
X436843Y261167D01*
X436581Y261058D01*
X436340Y260910D01*
X436124Y260726D01*
X435940Y260511D01*
X435792Y260269D01*
X435683Y260007D01*
X435617Y259731D01*
X435595Y259449D01*
X435617Y259166D01*
X435683Y258891D01*
X435792Y258629D01*
X435940Y258387D01*
X436124Y258171D01*
X436340Y257987D01*
X436581Y257839D01*
X436843Y257731D01*
X437119Y257665D01*
X437402Y257642D01*
X437684Y257665D01*
X437869Y257709D01*
X440942Y254635D01*
Y219798D01*
X440137D01*
X434913Y225021D01*
X434890Y225048D01*
X434783Y225140D01*
X434736Y225168D01*
X434696Y225193D01*
X434681Y225230D01*
X434532Y225471D01*
X434348Y225687D01*
X434133Y225871D01*
X433891Y226019D01*
X433629Y226128D01*
X433353Y226194D01*
X433071Y226216D01*
X432788Y226194D01*
X432513Y226128D01*
X432251Y226019D01*
X432009Y225871D01*
X431793Y225687D01*
X431609Y225471D01*
X431461Y225230D01*
X431353Y224968D01*
X431287Y224692D01*
X431264Y224409D01*
X431287Y224127D01*
X431353Y223851D01*
X431461Y223589D01*
X431609Y223348D01*
X431793Y223132D01*
X432009Y222948D01*
X432251Y222800D01*
X432513Y222691D01*
X432788Y222625D01*
X433071Y222603D01*
X433353Y222625D01*
X433629Y222691D01*
X433891Y222800D01*
X434133Y222948D01*
X434299Y223090D01*
X439102Y218286D01*
X439125Y218259D01*
X439233Y218167D01*
X439354Y218093D01*
X439485Y218039D01*
X439623Y218006D01*
X439623D01*
X439764Y217995D01*
X439799Y217998D01*
X440942D01*
Y215861D01*
X437774D01*
X434811Y218824D01*
X434855Y219009D01*
X434872Y219291D01*
X434855Y219574D01*
X434789Y219850D01*
X434681Y220111D01*
X434532Y220353D01*
X434348Y220569D01*
X434133Y220753D01*
X433891Y220901D01*
X433629Y221009D01*
X433353Y221076D01*
X433071Y221098D01*
X432788Y221076D01*
X432513Y221009D01*
X432251Y220901D01*
X432009Y220753D01*
X431793Y220569D01*
X431609Y220353D01*
X431461Y220111D01*
X431353Y219850D01*
X431287Y219574D01*
X431264Y219291D01*
X431287Y219009D01*
X431353Y218733D01*
X431461Y218471D01*
X431609Y218229D01*
X431793Y218014D01*
X432009Y217830D01*
X432251Y217682D01*
X432513Y217573D01*
X432788Y217507D01*
X433071Y217485D01*
X433353Y217507D01*
X433538Y217551D01*
X436740Y214349D01*
X436763Y214322D01*
X436871Y214230D01*
X436992Y214156D01*
X437123Y214102D01*
X437260Y214069D01*
X437260D01*
X437402Y214058D01*
X437437Y214061D01*
X440942D01*
Y197985D01*
X440572Y197615D01*
X440400Y197656D01*
X439961Y197691D01*
X439521Y197656D01*
X439093Y197553D01*
X438686Y197384D01*
X438310Y197154D01*
X437975Y196868D01*
X437688Y196533D01*
X437458Y196157D01*
X437289Y195750D01*
X437187Y195321D01*
X437152Y194882D01*
X437187Y194443D01*
X437289Y194014D01*
X437458Y193607D01*
X437688Y193231D01*
X437975Y192896D01*
X438310Y192610D01*
X438686Y192379D01*
X439093Y192211D01*
X439521Y192108D01*
X439961Y192073D01*
X440400Y192108D01*
X440829Y192211D01*
X440942Y192258D01*
Y178272D01*
X439567D01*
X439482Y178624D01*
X439314Y179031D01*
X439083Y179407D01*
X438797Y179742D01*
X438462Y180028D01*
X438086Y180258D01*
X437679Y180427D01*
X437250Y180530D01*
X436811Y180565D01*
X436372Y180530D01*
X435943Y180427D01*
X435536Y180258D01*
X435160Y180028D01*
X434825Y179742D01*
X434539Y179407D01*
X434309Y179031D01*
X434140Y178624D01*
X434037Y178195D01*
X434002Y177756D01*
X434037Y177317D01*
X434140Y176888D01*
X434309Y176481D01*
X434539Y176105D01*
X434825Y175770D01*
X435160Y175484D01*
X435536Y175253D01*
X435943Y175085D01*
X436372Y174982D01*
X436811Y174947D01*
X437250Y174982D01*
X437679Y175085D01*
X438086Y175253D01*
X438116Y175272D01*
X440942D01*
Y157874D01*
G37*
G36*
X427752Y231219D02*X419877D01*
X418313Y232782D01*
Y279063D01*
X418316Y279098D01*
X418305Y279240D01*
X418272Y279377D01*
X418218Y279508D01*
X418172Y279582D01*
X418144Y279629D01*
X418052Y279737D01*
X418025Y279760D01*
X416237Y281547D01*
Y322441D01*
X427752D01*
Y264944D01*
X427655Y265057D01*
X427440Y265241D01*
X427198Y265389D01*
X426936Y265498D01*
X426661Y265564D01*
X426378Y265586D01*
X426095Y265564D01*
X425820Y265498D01*
X425558Y265389D01*
X425316Y265241D01*
X425101Y265057D01*
X424916Y264841D01*
X424768Y264600D01*
X424660Y264338D01*
X424594Y264062D01*
X424571Y263780D01*
X424594Y263497D01*
X424638Y263312D01*
X423011Y261685D01*
X422984Y261662D01*
X422892Y261554D01*
X422818Y261433D01*
X422763Y261303D01*
X422730Y261165D01*
X422730Y261165D01*
X422719Y261024D01*
X422722Y260988D01*
Y240931D01*
X422560Y240832D01*
X422345Y240648D01*
X422161Y240432D01*
X422012Y240190D01*
X421904Y239928D01*
X421838Y239653D01*
X421815Y239370D01*
X421838Y239087D01*
X421904Y238812D01*
X422012Y238550D01*
X422161Y238308D01*
X422345Y238093D01*
X422560Y237909D01*
X422802Y237760D01*
X423064Y237652D01*
X423339Y237586D01*
X423622Y237564D01*
X423905Y237586D01*
X424180Y237652D01*
X424442Y237760D01*
X424684Y237909D01*
X424899Y238093D01*
X425084Y238308D01*
X425232Y238550D01*
X425340Y238812D01*
X425406Y239087D01*
X425423Y239370D01*
X425406Y239653D01*
X425340Y239928D01*
X425232Y240190D01*
X425084Y240432D01*
X424899Y240648D01*
X424684Y240832D01*
X424522Y240931D01*
Y260651D01*
X425911Y262040D01*
X426095Y261995D01*
X426378Y261973D01*
X426661Y261995D01*
X426936Y262061D01*
X427198Y262170D01*
X427440Y262318D01*
X427655Y262502D01*
X427752Y262615D01*
Y231219D01*
G37*
G36*
Y157874D02*X418898D01*
Y183858D01*
X416237D01*
Y213470D01*
X421797D01*
X421951Y213290D01*
X422166Y213105D01*
X422408Y212957D01*
X422670Y212849D01*
X422946Y212783D01*
X423228Y212760D01*
X423511Y212783D01*
X423787Y212849D01*
X424049Y212957D01*
X424290Y213105D01*
X424506Y213290D01*
X424690Y213505D01*
X424838Y213747D01*
X424946Y214009D01*
X425013Y214284D01*
X425029Y214567D01*
X425013Y214850D01*
X424946Y215125D01*
X424838Y215387D01*
X424690Y215629D01*
X424506Y215844D01*
X424290Y216028D01*
X424049Y216177D01*
X423787Y216285D01*
X423511Y216351D01*
X423228Y216373D01*
X422946Y216351D01*
X422670Y216285D01*
X422408Y216177D01*
X422166Y216028D01*
X421951Y215844D01*
X421767Y215629D01*
X421619Y215387D01*
X421570Y215270D01*
X416237D01*
Y279002D01*
X416513Y278726D01*
Y232445D01*
X416511Y232409D01*
X416522Y232268D01*
Y232268D01*
X416555Y232130D01*
X416609Y232000D01*
X416683Y231879D01*
X416775Y231771D01*
X416802Y231748D01*
X418843Y229707D01*
X418866Y229681D01*
X418973Y229589D01*
X419094Y229515D01*
X419225Y229460D01*
X419363Y229427D01*
X419363D01*
X419504Y229416D01*
X419539Y229419D01*
X427752D01*
Y200653D01*
X427465Y200534D01*
X427089Y200304D01*
X426754Y200018D01*
X426468Y199682D01*
X426238Y199307D01*
X426069Y198899D01*
X425966Y198471D01*
X425932Y198031D01*
X425966Y197592D01*
X426069Y197164D01*
X426238Y196756D01*
X426468Y196381D01*
X426754Y196045D01*
X427089Y195759D01*
X427240Y195667D01*
Y189775D01*
X427211Y189782D01*
X426772Y189817D01*
X426332Y189782D01*
X425904Y189679D01*
X425497Y189510D01*
X425121Y189280D01*
X424786Y188994D01*
X424499Y188659D01*
X424269Y188283D01*
X424100Y187876D01*
X423998Y187447D01*
X423963Y187008D01*
X423998Y186569D01*
X424100Y186140D01*
X424269Y185733D01*
X424499Y185357D01*
X424786Y185022D01*
X425121Y184736D01*
X425497Y184505D01*
X425904Y184337D01*
X426332Y184234D01*
X426772Y184199D01*
X427211Y184234D01*
X427640Y184337D01*
X427752Y184383D01*
Y157874D01*
G37*
G36*
X416237Y183858D02*X398103D01*
Y192632D01*
X404955D01*
X405022Y192523D01*
X405431Y192045D01*
X405909Y191636D01*
X406446Y191307D01*
X407028Y191066D01*
X407640Y190919D01*
X408268Y190870D01*
X408895Y190919D01*
X409508Y191066D01*
X410089Y191307D01*
X410626Y191636D01*
X411105Y192045D01*
X411514Y192523D01*
X411843Y193060D01*
X412084Y193642D01*
X412231Y194254D01*
X412268Y194882D01*
X412231Y195510D01*
X412084Y196122D01*
X411843Y196703D01*
X411514Y197240D01*
X411105Y197719D01*
X410626Y198128D01*
X410089Y198457D01*
X409508Y198698D01*
X408895Y198845D01*
X408268Y198894D01*
X407640Y198845D01*
X407028Y198698D01*
X406446Y198457D01*
X405909Y198128D01*
X405431Y197719D01*
X405022Y197240D01*
X404955Y197132D01*
X398103D01*
Y232590D01*
X410571Y232594D01*
X410752Y232638D01*
X410923Y232709D01*
X411082Y232806D01*
X411223Y232927D01*
X411344Y233068D01*
X411441Y233227D01*
X411512Y233398D01*
X411556Y233579D01*
X411567Y233765D01*
X411556Y238150D01*
X411512Y238331D01*
X411441Y238502D01*
X411344Y238661D01*
X411223Y238802D01*
X411082Y238923D01*
X410940Y239010D01*
X411095Y239105D01*
X411236Y239226D01*
X411357Y239367D01*
X411454Y239526D01*
X411525Y239698D01*
X411568Y239878D01*
X411579Y240064D01*
X411568Y244449D01*
X411525Y244630D01*
X411454Y244802D01*
X411357Y244960D01*
X411236Y245102D01*
X411130Y245192D01*
X415097Y245193D01*
X415278Y245236D01*
X415450Y245307D01*
X415608Y245405D01*
X415749Y245525D01*
X415870Y245667D01*
X415967Y245825D01*
X416038Y245997D01*
X416082Y246178D01*
X416093Y246363D01*
X416082Y250748D01*
X416038Y250929D01*
X415967Y251101D01*
X415870Y251259D01*
X415749Y251401D01*
X415608Y251521D01*
X415450Y251619D01*
X415278Y251690D01*
X415097Y251733D01*
X414912Y251744D01*
X398103Y251739D01*
Y312810D01*
X398110Y312809D01*
X398816Y312865D01*
X399505Y313030D01*
X400159Y313301D01*
X400763Y313671D01*
X401302Y314131D01*
X401762Y314670D01*
X402132Y315274D01*
X402403Y315928D01*
X402569Y316617D01*
X402610Y317323D01*
X402569Y318029D01*
X402403Y318718D01*
X402132Y319372D01*
X401762Y319976D01*
X401302Y320515D01*
X400763Y320975D01*
X400159Y321345D01*
X399505Y321616D01*
X398816Y321781D01*
X398110Y321837D01*
X398103Y321836D01*
Y322441D01*
X416237D01*
Y281547D01*
X409397Y288387D01*
X409442Y288572D01*
X409458Y288854D01*
X409442Y289137D01*
X409376Y289413D01*
X409267Y289674D01*
X409119Y289916D01*
X408935Y290132D01*
X408719Y290316D01*
X408478Y290464D01*
X408216Y290572D01*
X407940Y290639D01*
X407657Y290661D01*
X407375Y290639D01*
X407099Y290572D01*
X406837Y290464D01*
X406596Y290316D01*
X406380Y290132D01*
X406196Y289916D01*
X406048Y289674D01*
X405939Y289413D01*
X405873Y289137D01*
X405851Y288854D01*
X405873Y288572D01*
X405939Y288296D01*
X406048Y288034D01*
X406196Y287792D01*
X406380Y287577D01*
X406596Y287393D01*
X406837Y287245D01*
X407099Y287136D01*
X407375Y287070D01*
X407657Y287048D01*
X407940Y287070D01*
X408125Y287114D01*
X416237Y279002D01*
Y215270D01*
X411987D01*
X410992Y216265D01*
X411036Y216450D01*
X411053Y216732D01*
X411036Y217015D01*
X410970Y217291D01*
X410862Y217552D01*
X410714Y217794D01*
X410529Y218010D01*
X410314Y218194D01*
X410072Y218342D01*
X409810Y218450D01*
X409535Y218517D01*
X409252Y218539D01*
X408969Y218517D01*
X408694Y218450D01*
X408432Y218342D01*
X408190Y218194D01*
X407975Y218010D01*
X407790Y217794D01*
X407642Y217552D01*
X407534Y217291D01*
X407468Y217015D01*
X407445Y216732D01*
X407468Y216450D01*
X407534Y216174D01*
X407642Y215912D01*
X407790Y215670D01*
X407975Y215455D01*
X408190Y215271D01*
X408432Y215123D01*
X408694Y215014D01*
X408969Y214948D01*
X409252Y214926D01*
X409535Y214948D01*
X409719Y214992D01*
X410953Y213759D01*
X410976Y213732D01*
X411084Y213640D01*
X411204Y213566D01*
X411335Y213511D01*
X411473Y213478D01*
X411473D01*
X411614Y213467D01*
X411649Y213470D01*
X416237D01*
Y183858D01*
G37*
G36*
X398103Y251739D02*X391723Y251737D01*
Y289069D01*
X392556Y289902D01*
X392741Y289857D01*
X393024Y289835D01*
X393306Y289857D01*
X393582Y289924D01*
X393844Y290032D01*
X394085Y290180D01*
X394301Y290364D01*
X394485Y290580D01*
X394633Y290822D01*
X394742Y291083D01*
X394808Y291359D01*
X394825Y291642D01*
X394808Y291924D01*
X394742Y292200D01*
X394633Y292462D01*
X394485Y292704D01*
X394301Y292919D01*
X394085Y293103D01*
X393844Y293251D01*
X393582Y293360D01*
X393306Y293426D01*
X393024Y293448D01*
X392741Y293426D01*
X392465Y293360D01*
X392203Y293251D01*
X391962Y293103D01*
X391746Y292919D01*
X391723Y292892D01*
Y304625D01*
X391766Y304632D01*
X391878Y304669D01*
X391983Y304723D01*
X392078Y304793D01*
X392161Y304878D01*
X392229Y304974D01*
X392280Y305080D01*
X392429Y305487D01*
X392532Y305909D01*
X392595Y306338D01*
X392615Y306772D01*
X392595Y307205D01*
X392532Y307634D01*
X392429Y308056D01*
X392285Y308465D01*
X392232Y308572D01*
X392163Y308668D01*
X392080Y308753D01*
X391985Y308823D01*
X391879Y308878D01*
X391767Y308915D01*
X391723Y308922D01*
Y315176D01*
X391766Y315183D01*
X391878Y315220D01*
X391983Y315275D01*
X392078Y315345D01*
X392161Y315429D01*
X392229Y315525D01*
X392280Y315631D01*
X392429Y316039D01*
X392532Y316460D01*
X392595Y316889D01*
X392615Y317323D01*
X392595Y317756D01*
X392532Y318186D01*
X392429Y318607D01*
X392285Y319016D01*
X392232Y319123D01*
X392163Y319219D01*
X392080Y319304D01*
X391985Y319374D01*
X391879Y319429D01*
X391767Y319466D01*
X391723Y319473D01*
Y322441D01*
X398103D01*
Y321836D01*
X397404Y321781D01*
X396715Y321616D01*
X396061Y321345D01*
X395457Y320975D01*
X394918Y320515D01*
X394458Y319976D01*
X394088Y319372D01*
X393817Y318718D01*
X393652Y318029D01*
X393596Y317323D01*
X393652Y316617D01*
X393817Y315928D01*
X394088Y315274D01*
X394458Y314670D01*
X394918Y314131D01*
X395457Y313671D01*
X396061Y313301D01*
X396715Y313030D01*
X397404Y312865D01*
X398103Y312810D01*
Y251739D01*
G37*
G36*
Y197132D02*X391723D01*
Y232587D01*
X398103Y232590D01*
Y197132D01*
G37*
G36*
Y183858D02*X391723D01*
Y192632D01*
X398103D01*
Y183858D01*
G37*
G36*
X391723Y292892D02*X391562Y292704D01*
X391414Y292462D01*
X391305Y292200D01*
X391239Y291924D01*
X391217Y291642D01*
X391239Y291359D01*
X391284Y291175D01*
X387789Y287680D01*
Y302282D01*
X388110Y302266D01*
X388544Y302287D01*
X388973Y302350D01*
X389394Y302453D01*
X389804Y302597D01*
X389910Y302649D01*
X390007Y302718D01*
X390091Y302802D01*
X390161Y302897D01*
X390216Y303002D01*
X390254Y303115D01*
X390273Y303232D01*
X390274Y303351D01*
X390256Y303468D01*
X390220Y303581D01*
X390167Y303687D01*
X390098Y303783D01*
X390015Y303868D01*
X389920Y303938D01*
X389814Y303993D01*
X389702Y304030D01*
X389585Y304050D01*
X389466Y304051D01*
X389349Y304033D01*
X389237Y303995D01*
X388965Y303896D01*
X388685Y303827D01*
X388399Y303786D01*
X388110Y303772D01*
X387822Y303786D01*
X387789Y303790D01*
Y309753D01*
X387822Y309758D01*
X388110Y309772D01*
X388399Y309758D01*
X388685Y309716D01*
X388965Y309647D01*
X389238Y309552D01*
X389350Y309514D01*
X389466Y309496D01*
X389584Y309497D01*
X389701Y309516D01*
X389813Y309554D01*
X389918Y309608D01*
X390013Y309678D01*
X390096Y309762D01*
X390164Y309858D01*
X390217Y309964D01*
X390253Y310076D01*
X390270Y310193D01*
X390270Y310311D01*
X390250Y310428D01*
X390213Y310540D01*
X390159Y310644D01*
X390088Y310739D01*
X390004Y310822D01*
X389908Y310891D01*
X389802Y310942D01*
X389394Y311090D01*
X388973Y311193D01*
X388544Y311256D01*
X388110Y311277D01*
X387789Y311261D01*
Y312833D01*
X388110Y312818D01*
X388544Y312839D01*
X388973Y312901D01*
X389394Y313005D01*
X389804Y313148D01*
X389910Y313201D01*
X390007Y313270D01*
X390091Y313353D01*
X390161Y313448D01*
X390216Y313554D01*
X390254Y313666D01*
X390273Y313783D01*
X390274Y313902D01*
X390256Y314019D01*
X390220Y314132D01*
X390167Y314238D01*
X390098Y314335D01*
X390015Y314419D01*
X389920Y314489D01*
X389814Y314544D01*
X389702Y314582D01*
X389585Y314601D01*
X389466Y314602D01*
X389349Y314584D01*
X389237Y314546D01*
X388965Y314447D01*
X388685Y314378D01*
X388399Y314337D01*
X388110Y314323D01*
X387822Y314337D01*
X387789Y314341D01*
Y320304D01*
X387822Y320309D01*
X388110Y320323D01*
X388399Y320309D01*
X388685Y320267D01*
X388965Y320198D01*
X389238Y320103D01*
X389350Y320065D01*
X389466Y320047D01*
X389584Y320048D01*
X389701Y320068D01*
X389813Y320105D01*
X389918Y320159D01*
X390013Y320229D01*
X390096Y320313D01*
X390164Y320409D01*
X390217Y320515D01*
X390253Y320627D01*
X390270Y320744D01*
X390270Y320862D01*
X390250Y320979D01*
X390213Y321091D01*
X390159Y321196D01*
X390088Y321291D01*
X390004Y321373D01*
X389908Y321442D01*
X389802Y321493D01*
X389394Y321641D01*
X388973Y321745D01*
X388544Y321807D01*
X388110Y321828D01*
X387789Y321813D01*
Y322441D01*
X391723D01*
Y319473D01*
X391650Y319486D01*
X391531Y319486D01*
X391414Y319469D01*
X391301Y319433D01*
X391195Y319380D01*
X391099Y319311D01*
X391014Y319228D01*
X390944Y319132D01*
X390889Y319027D01*
X390852Y318914D01*
X390832Y318797D01*
X390831Y318679D01*
X390849Y318561D01*
X390887Y318449D01*
X390986Y318178D01*
X391055Y317897D01*
X391096Y317611D01*
X391110Y317323D01*
X391096Y317034D01*
X391055Y316748D01*
X390986Y316468D01*
X390890Y316195D01*
X390852Y316083D01*
X390835Y315967D01*
X390836Y315849D01*
X390855Y315732D01*
X390892Y315620D01*
X390947Y315515D01*
X391017Y315420D01*
X391101Y315337D01*
X391197Y315269D01*
X391302Y315216D01*
X391415Y315180D01*
X391532Y315163D01*
X391650Y315164D01*
X391723Y315176D01*
Y308922D01*
X391650Y308934D01*
X391531Y308935D01*
X391414Y308918D01*
X391301Y308882D01*
X391195Y308829D01*
X391099Y308760D01*
X391014Y308676D01*
X390944Y308581D01*
X390889Y308476D01*
X390852Y308363D01*
X390832Y308246D01*
X390831Y308128D01*
X390849Y308010D01*
X390887Y307898D01*
X390986Y307627D01*
X391055Y307346D01*
X391096Y307060D01*
X391110Y306772D01*
X391096Y306483D01*
X391055Y306197D01*
X390986Y305917D01*
X390890Y305644D01*
X390852Y305532D01*
X390835Y305415D01*
X390836Y305297D01*
X390855Y305181D01*
X390892Y305069D01*
X390947Y304964D01*
X391017Y304869D01*
X391101Y304786D01*
X391197Y304718D01*
X391302Y304665D01*
X391415Y304629D01*
X391532Y304612D01*
X391650Y304612D01*
X391723Y304625D01*
Y292892D01*
G37*
G36*
Y251737D02*X387789Y251736D01*
Y285134D01*
X391723Y289069D01*
Y251737D01*
G37*
G36*
Y197132D02*X387789D01*
Y232586D01*
X391723Y232587D01*
Y197132D01*
G37*
G36*
Y183858D02*X387789D01*
Y192632D01*
X391723D01*
Y183858D01*
G37*
G36*
X364500Y314621D02*X364918Y314131D01*
X365457Y313671D01*
X366061Y313301D01*
X366715Y313030D01*
X367404Y312865D01*
X368110Y312809D01*
X368816Y312865D01*
X369505Y313030D01*
X370159Y313301D01*
X370398Y313447D01*
X371935Y311911D01*
Y309143D01*
X371762Y309425D01*
X371302Y309963D01*
X370763Y310423D01*
X370159Y310794D01*
X369505Y311065D01*
X368816Y311230D01*
X368110Y311286D01*
X367404Y311230D01*
X366715Y311065D01*
X366061Y310794D01*
X365457Y310423D01*
X364918Y309963D01*
X364500Y309473D01*
Y314621D01*
G37*
G36*
X384497Y232585D02*X387789Y232586D01*
Y197132D01*
X384497D01*
Y232585D01*
G37*
G36*
Y281842D02*X387789Y285134D01*
Y251736D01*
X384497Y251735D01*
Y281842D01*
G37*
G36*
Y322441D02*X387789D01*
Y321813D01*
X387677Y321807D01*
X387247Y321745D01*
X386826Y321641D01*
X386417Y321498D01*
X386310Y321445D01*
X386214Y321376D01*
X386129Y321293D01*
X386059Y321197D01*
X386004Y321092D01*
X385967Y320980D01*
X385947Y320863D01*
X385947Y320744D01*
X385964Y320627D01*
X386000Y320514D01*
X386053Y320408D01*
X386122Y320311D01*
X386205Y320227D01*
X386301Y320156D01*
X386406Y320102D01*
X386519Y320064D01*
X386636Y320045D01*
X386754Y320044D01*
X386872Y320062D01*
X386984Y320100D01*
X387255Y320198D01*
X387536Y320267D01*
X387789Y320304D01*
Y314341D01*
X387536Y314378D01*
X387255Y314447D01*
X386982Y314543D01*
X386871Y314581D01*
X386754Y314598D01*
X386636Y314597D01*
X386520Y314578D01*
X386408Y314541D01*
X386303Y314486D01*
X386208Y314416D01*
X386125Y314332D01*
X386056Y314236D01*
X386003Y314131D01*
X385968Y314018D01*
X385950Y313901D01*
X385951Y313783D01*
X385970Y313667D01*
X386008Y313555D01*
X386062Y313450D01*
X386132Y313355D01*
X386216Y313272D01*
X386312Y313204D01*
X386419Y313153D01*
X386826Y313005D01*
X387247Y312901D01*
X387677Y312839D01*
X387789Y312833D01*
Y311261D01*
X387677Y311256D01*
X387247Y311193D01*
X386826Y311090D01*
X386417Y310946D01*
X386310Y310894D01*
X386214Y310825D01*
X386129Y310742D01*
X386059Y310646D01*
X386004Y310541D01*
X385967Y310428D01*
X385947Y310311D01*
X385947Y310193D01*
X385964Y310076D01*
X386000Y309962D01*
X386053Y309856D01*
X386122Y309760D01*
X386205Y309675D01*
X386301Y309605D01*
X386406Y309550D01*
X386519Y309513D01*
X386636Y309494D01*
X386754Y309493D01*
X386872Y309510D01*
X386984Y309548D01*
X387255Y309647D01*
X387536Y309716D01*
X387789Y309753D01*
Y303790D01*
X387536Y303827D01*
X387255Y303896D01*
X386982Y303992D01*
X386871Y304030D01*
X386754Y304047D01*
X386636Y304046D01*
X386520Y304027D01*
X386408Y303990D01*
X386303Y303935D01*
X386208Y303865D01*
X386125Y303781D01*
X386056Y303685D01*
X386003Y303580D01*
X385968Y303467D01*
X385950Y303350D01*
X385951Y303232D01*
X385970Y303116D01*
X386008Y303004D01*
X386062Y302899D01*
X386132Y302804D01*
X386216Y302721D01*
X386312Y302652D01*
X386419Y302602D01*
X386826Y302453D01*
X387247Y302350D01*
X387677Y302287D01*
X387789Y302282D01*
Y287680D01*
X384497Y284388D01*
Y304621D01*
X384570Y304609D01*
X384689Y304608D01*
X384806Y304626D01*
X384919Y304662D01*
X385025Y304715D01*
X385122Y304784D01*
X385206Y304867D01*
X385277Y304962D01*
X385331Y305068D01*
X385369Y305180D01*
X385388Y305297D01*
X385389Y305416D01*
X385371Y305533D01*
X385334Y305645D01*
X385235Y305917D01*
X385166Y306197D01*
X385124Y306483D01*
X385110Y306772D01*
X385124Y307060D01*
X385166Y307346D01*
X385235Y307627D01*
X385330Y307899D01*
X385368Y308011D01*
X385386Y308128D01*
X385385Y308246D01*
X385366Y308362D01*
X385328Y308474D01*
X385274Y308579D01*
X385204Y308674D01*
X385120Y308757D01*
X385024Y308826D01*
X384918Y308879D01*
X384806Y308914D01*
X384689Y308932D01*
X384571Y308931D01*
X384497Y308919D01*
Y315172D01*
X384570Y315160D01*
X384689Y315159D01*
X384806Y315177D01*
X384919Y315213D01*
X385025Y315266D01*
X385122Y315335D01*
X385206Y315418D01*
X385277Y315514D01*
X385331Y315619D01*
X385369Y315731D01*
X385388Y315848D01*
X385389Y315967D01*
X385371Y316084D01*
X385334Y316196D01*
X385235Y316468D01*
X385166Y316748D01*
X385124Y317034D01*
X385110Y317323D01*
X385124Y317611D01*
X385166Y317897D01*
X385235Y318178D01*
X385330Y318451D01*
X385368Y318562D01*
X385386Y318679D01*
X385385Y318797D01*
X385366Y318914D01*
X385328Y319026D01*
X385274Y319130D01*
X385204Y319225D01*
X385120Y319308D01*
X385024Y319377D01*
X384918Y319430D01*
X384806Y319465D01*
X384689Y319483D01*
X384571Y319482D01*
X384497Y319470D01*
Y322441D01*
G37*
G36*
Y284388D02*X374294Y274185D01*
X374267Y274162D01*
X374175Y274054D01*
X374101Y273933D01*
X374047Y273803D01*
X374014Y273665D01*
X374014Y273665D01*
X374003Y273524D01*
X374006Y273488D01*
Y237454D01*
X373844Y237355D01*
X373628Y237171D01*
X373444Y236956D01*
X373296Y236714D01*
X373187Y236452D01*
X373121Y236176D01*
X373099Y235894D01*
X373121Y235611D01*
X373187Y235335D01*
X373296Y235074D01*
X373444Y234832D01*
X373628Y234616D01*
X373844Y234432D01*
X374085Y234284D01*
X374347Y234176D01*
X374623Y234109D01*
X374906Y234087D01*
X375188Y234109D01*
X375464Y234176D01*
X375726Y234284D01*
X375967Y234432D01*
X376183Y234616D01*
X376367Y234832D01*
X376515Y235074D01*
X376624Y235335D01*
X376690Y235611D01*
X376707Y235894D01*
X376690Y236176D01*
X376624Y236452D01*
X376515Y236714D01*
X376367Y236956D01*
X376183Y237171D01*
X375967Y237355D01*
X375806Y237454D01*
Y273151D01*
X384497Y281842D01*
Y251735D01*
X377086Y251733D01*
X376906Y251690D01*
X376734Y251619D01*
X376575Y251521D01*
X376434Y251401D01*
X376313Y251259D01*
X376216Y251101D01*
X376145Y250929D01*
X376101Y250748D01*
X376091Y250563D01*
X376101Y246178D01*
X376145Y245997D01*
X376216Y245825D01*
X376313Y245667D01*
X376434Y245525D01*
X376575Y245405D01*
X376734Y245307D01*
X376906Y245236D01*
X377086Y245193D01*
X377272Y245182D01*
X379375Y245182D01*
X379280Y245102D01*
X379160Y244960D01*
X379062Y244802D01*
X378991Y244630D01*
X378948Y244449D01*
X378937Y244264D01*
X378948Y239878D01*
X378991Y239698D01*
X379062Y239526D01*
X379160Y239367D01*
X379280Y239226D01*
X379422Y239105D01*
X379580Y239008D01*
X379752Y238937D01*
X379933Y238894D01*
X380118Y238883D01*
X380162Y238883D01*
X380068Y238802D01*
X379947Y238661D01*
X379850Y238502D01*
X379779Y238331D01*
X379735Y238150D01*
X379724Y237965D01*
X379735Y233579D01*
X379779Y233398D01*
X379850Y233227D01*
X379947Y233068D01*
X380068Y232927D01*
X380209Y232806D01*
X380368Y232709D01*
X380539Y232638D01*
X380720Y232594D01*
X380906Y232583D01*
X384497Y232585D01*
Y197132D01*
X382822D01*
X370360Y209593D01*
Y278106D01*
X370569Y278350D01*
X370898Y278887D01*
X371139Y279469D01*
X371286Y280081D01*
X371323Y280709D01*
X371286Y281336D01*
X371139Y281949D01*
X370898Y282530D01*
X370569Y283067D01*
X370160Y283546D01*
X369681Y283955D01*
X369144Y284284D01*
X368563Y284525D01*
X367951Y284672D01*
X367323Y284721D01*
X366695Y284672D01*
X366083Y284525D01*
X365501Y284284D01*
X364964Y283955D01*
X364500Y283558D01*
Y294723D01*
X365727Y295950D01*
X371225D01*
X371260Y295948D01*
X371401Y295959D01*
X371401Y295959D01*
X371539Y295992D01*
X371670Y296046D01*
X371790Y296120D01*
X371898Y296212D01*
X371921Y296239D01*
X376357Y300675D01*
X380280D01*
X380315Y300672D01*
X380456Y300683D01*
X380456Y300683D01*
X380594Y300716D01*
X380725Y300770D01*
X380846Y300844D01*
X380953Y300936D01*
X380976Y300963D01*
X383682Y303669D01*
X383709Y303692D01*
X383801Y303800D01*
X383875Y303921D01*
X383929Y304052D01*
X383963Y304189D01*
X383974Y304331D01*
X383971Y304366D01*
Y305006D01*
X383988Y304972D01*
X384057Y304875D01*
X384140Y304791D01*
X384236Y304720D01*
X384341Y304666D01*
X384454Y304628D01*
X384497Y304621D01*
Y284388D01*
G37*
G36*
X364500Y322441D02*X384497D01*
Y319470D01*
X384454Y319463D01*
X384342Y319425D01*
X384238Y319371D01*
X384143Y319301D01*
X384060Y319217D01*
X383991Y319121D01*
X383940Y319015D01*
X383792Y318607D01*
X383688Y318186D01*
X383626Y317756D01*
X383605Y317323D01*
X383626Y316889D01*
X383688Y316460D01*
X383792Y316039D01*
X383935Y315629D01*
X383988Y315523D01*
X384057Y315426D01*
X384140Y315342D01*
X384236Y315272D01*
X384341Y315217D01*
X384454Y315179D01*
X384497Y315172D01*
Y308919D01*
X384454Y308912D01*
X384342Y308874D01*
X384238Y308820D01*
X384143Y308750D01*
X384060Y308666D01*
X383991Y308570D01*
X383971Y308527D01*
Y312327D01*
X383974Y312362D01*
X383963Y312503D01*
X383929Y312641D01*
X383875Y312772D01*
X383830Y312846D01*
X383801Y312893D01*
X383709Y313001D01*
X383682Y313024D01*
X381866Y314840D01*
X382132Y315274D01*
X382403Y315928D01*
X382569Y316617D01*
X382610Y317323D01*
X382569Y318029D01*
X382403Y318718D01*
X382132Y319372D01*
X381762Y319976D01*
X381302Y320515D01*
X380763Y320975D01*
X380159Y321345D01*
X379505Y321616D01*
X378816Y321781D01*
X378110Y321837D01*
X377404Y321781D01*
X376715Y321616D01*
X376061Y321345D01*
X375457Y320975D01*
X374918Y320515D01*
X374458Y319976D01*
X374088Y319372D01*
X373817Y318718D01*
X373652Y318029D01*
X373596Y317323D01*
X373652Y316617D01*
X373817Y315928D01*
X374088Y315274D01*
X374458Y314670D01*
X374918Y314131D01*
X375457Y313671D01*
X376061Y313301D01*
X376715Y313030D01*
X377404Y312865D01*
X378110Y312809D01*
X378816Y312865D01*
X379505Y313030D01*
X380159Y313301D01*
X380593Y313567D01*
X382171Y311989D01*
Y308727D01*
X382132Y308821D01*
X381762Y309425D01*
X381302Y309963D01*
X380763Y310423D01*
X380159Y310794D01*
X379505Y311065D01*
X378816Y311230D01*
X378110Y311286D01*
X377404Y311230D01*
X376715Y311065D01*
X376061Y310794D01*
X375457Y310423D01*
X374918Y309963D01*
X374458Y309425D01*
X374088Y308821D01*
X373817Y308167D01*
X373735Y307822D01*
Y312248D01*
X373737Y312283D01*
X373726Y312425D01*
X373693Y312562D01*
X373639Y312693D01*
X373594Y312767D01*
X373565Y312814D01*
X373473Y312922D01*
X373446Y312945D01*
X371743Y314648D01*
X371762Y314670D01*
X372132Y315274D01*
X372403Y315928D01*
X372569Y316617D01*
X372610Y317323D01*
X372569Y318029D01*
X372403Y318718D01*
X372132Y319372D01*
X371762Y319976D01*
X371302Y320515D01*
X370763Y320975D01*
X370159Y321345D01*
X369505Y321616D01*
X368816Y321781D01*
X368110Y321837D01*
X367404Y321781D01*
X366715Y321616D01*
X366061Y321345D01*
X365457Y320975D01*
X364918Y320515D01*
X364500Y320024D01*
Y322441D01*
G37*
G36*
X387789Y183858D02*X364500D01*
Y277860D01*
X364964Y277463D01*
X365501Y277134D01*
X365860Y276985D01*
Y208750D01*
X365853Y208661D01*
X365881Y208308D01*
Y208308D01*
X365964Y207964D01*
X366099Y207637D01*
X366170Y207522D01*
X366284Y207335D01*
X366284Y207335D01*
X366514Y207066D01*
X366582Y207008D01*
X380236Y193353D01*
X380294Y193286D01*
X380563Y193056D01*
X380563Y193056D01*
X380750Y192941D01*
X380865Y192871D01*
X381192Y192735D01*
X381537Y192653D01*
X381537D01*
X381890Y192625D01*
X381978Y192632D01*
X387789D01*
Y183858D01*
G37*
G36*
X364500D02*X342913D01*
Y322441D01*
X364500D01*
Y320024D01*
X364458Y319976D01*
X364088Y319372D01*
X363817Y318718D01*
X363652Y318029D01*
X363596Y317323D01*
X363652Y316617D01*
X363817Y315928D01*
X364088Y315274D01*
X364458Y314670D01*
X364500Y314621D01*
Y309473D01*
X364458Y309425D01*
X364088Y308821D01*
X363892Y308347D01*
Y312091D01*
X363895Y312126D01*
X363884Y312267D01*
X363851Y312405D01*
X363797Y312536D01*
X363751Y312610D01*
X363722Y312657D01*
X363630Y312764D01*
X363604Y312787D01*
X361743Y314648D01*
X361762Y314670D01*
X362132Y315274D01*
X362403Y315928D01*
X362569Y316617D01*
X362610Y317323D01*
X362569Y318029D01*
X362403Y318718D01*
X362132Y319372D01*
X361762Y319976D01*
X361302Y320515D01*
X360763Y320975D01*
X360159Y321345D01*
X359505Y321616D01*
X358816Y321781D01*
X358110Y321837D01*
X357404Y321781D01*
X356715Y321616D01*
X356061Y321345D01*
X355457Y320975D01*
X354918Y320515D01*
X354458Y319976D01*
X354088Y319372D01*
X353817Y318718D01*
X353652Y318029D01*
X353596Y317323D01*
X353652Y316617D01*
X353817Y315928D01*
X354088Y315274D01*
X354458Y314670D01*
X354918Y314131D01*
X355457Y313671D01*
X356061Y313301D01*
X356715Y313030D01*
X357404Y312865D01*
X358110Y312809D01*
X358816Y312865D01*
X359505Y313030D01*
X360159Y313301D01*
X360398Y313447D01*
X362092Y311753D01*
Y308886D01*
X361762Y309425D01*
X361302Y309963D01*
X360763Y310423D01*
X360159Y310794D01*
X359505Y311065D01*
X358816Y311230D01*
X358110Y311286D01*
X357404Y311230D01*
X356715Y311065D01*
X356061Y310794D01*
X355457Y310423D01*
X354918Y309963D01*
X354458Y309425D01*
X354088Y308821D01*
X354050Y308727D01*
Y312012D01*
X354052Y312047D01*
X354041Y312188D01*
X354008Y312326D01*
X353954Y312457D01*
X353880Y312578D01*
X353788Y312686D01*
X353680Y312778D01*
X353559Y312852D01*
X353525Y312866D01*
X352539Y313852D01*
X352541Y313858D01*
X352596Y314087D01*
X352610Y314323D01*
X352596Y320558D01*
X352541Y320788D01*
X352451Y321006D01*
X352328Y321207D01*
X352174Y321387D01*
X351995Y321540D01*
X351793Y321663D01*
X351575Y321754D01*
X351346Y321809D01*
X351110Y321823D01*
X344875Y321809D01*
X344645Y321754D01*
X344427Y321663D01*
X344226Y321540D01*
X344046Y321387D01*
X343893Y321207D01*
X343770Y321006D01*
X343679Y320788D01*
X343624Y320558D01*
X343610Y320323D01*
X343624Y314087D01*
X343679Y313858D01*
X343770Y313640D01*
X343893Y313438D01*
X344046Y313259D01*
X344226Y313106D01*
X344427Y312982D01*
X344645Y312892D01*
X344875Y312837D01*
X345110Y312823D01*
X351009Y312836D01*
X352250Y311596D01*
Y310747D01*
X352174Y310836D01*
X351995Y310989D01*
X351793Y311112D01*
X351575Y311203D01*
X351346Y311258D01*
X351110Y311272D01*
X344875Y311258D01*
X344645Y311203D01*
X344427Y311112D01*
X344226Y310989D01*
X344046Y310836D01*
X343893Y310656D01*
X343770Y310455D01*
X343679Y310237D01*
X343624Y310007D01*
X343610Y309772D01*
X343624Y303536D01*
X343679Y303307D01*
X343770Y303089D01*
X343893Y302887D01*
X343982Y302783D01*
Y206728D01*
X343979Y206693D01*
X343990Y206552D01*
Y206552D01*
X344023Y206414D01*
X344078Y206283D01*
X344152Y206162D01*
X344244Y206055D01*
X344270Y206032D01*
X346189Y204113D01*
X346212Y204086D01*
X346320Y203994D01*
X346441Y203920D01*
X346571Y203866D01*
X346709Y203833D01*
X346709D01*
X346850Y203822D01*
X346886Y203824D01*
X348833D01*
X348932Y203663D01*
X349116Y203447D01*
X349332Y203263D01*
X349574Y203115D01*
X349835Y203006D01*
X350111Y202940D01*
X350394Y202918D01*
X350676Y202940D01*
X350952Y203006D01*
X351214Y203115D01*
X351456Y203263D01*
X351671Y203447D01*
X351855Y203663D01*
X352003Y203904D01*
X352112Y204166D01*
X352178Y204442D01*
X352195Y204724D01*
X352178Y205007D01*
X352112Y205283D01*
X352003Y205545D01*
X351855Y205786D01*
X351671Y206002D01*
X351456Y206186D01*
X351214Y206334D01*
X350952Y206443D01*
X350676Y206509D01*
X350394Y206531D01*
X350111Y206509D01*
X349835Y206443D01*
X349574Y206334D01*
X349332Y206186D01*
X349116Y206002D01*
X348932Y205786D01*
X348833Y205624D01*
X347223D01*
X345782Y207066D01*
Y208459D01*
X345818Y208417D01*
X345845Y208394D01*
X347370Y206869D01*
X347393Y206842D01*
X347501Y206750D01*
X347622Y206676D01*
X347753Y206622D01*
X347890Y206589D01*
X347890D01*
X348032Y206578D01*
X348067Y206580D01*
X351202D01*
X352250Y205533D01*
Y203522D01*
X350130Y201403D01*
X350000Y201413D01*
X349717Y201391D01*
X349442Y201324D01*
X349180Y201216D01*
X348938Y201068D01*
X348723Y200884D01*
X348538Y200668D01*
X348390Y200426D01*
X348282Y200165D01*
X348216Y199889D01*
X348193Y199606D01*
X348216Y199324D01*
X348282Y199048D01*
X348390Y198786D01*
X348538Y198544D01*
X348723Y198329D01*
X348938Y198145D01*
X349180Y197997D01*
X349442Y197888D01*
X349717Y197822D01*
X350000Y197800D01*
X350283Y197822D01*
X350558Y197888D01*
X350820Y197997D01*
X351062Y198145D01*
X351277Y198329D01*
X351462Y198544D01*
X351610Y198786D01*
X351718Y199048D01*
X351784Y199324D01*
X351801Y199606D01*
X351784Y199889D01*
X351718Y200165D01*
X351636Y200363D01*
X353761Y202488D01*
X353788Y202511D01*
X353824Y202554D01*
Y198798D01*
X351255Y196228D01*
X351070Y196273D01*
X350787Y196295D01*
X350505Y196273D01*
X350229Y196206D01*
X349967Y196098D01*
X349726Y195950D01*
X349510Y195766D01*
X349326Y195550D01*
X349178Y195308D01*
X349069Y195046D01*
X349003Y194771D01*
X348981Y194488D01*
X349003Y194206D01*
X349069Y193930D01*
X349178Y193668D01*
X349326Y193426D01*
X349510Y193211D01*
X349726Y193027D01*
X349967Y192879D01*
X350229Y192770D01*
X350505Y192704D01*
X350787Y192682D01*
X351070Y192704D01*
X351346Y192770D01*
X351608Y192879D01*
X351849Y193027D01*
X352065Y193211D01*
X352249Y193426D01*
X352397Y193668D01*
X352506Y193930D01*
X352572Y194206D01*
X352588Y194488D01*
X352572Y194771D01*
X352527Y194955D01*
X355336Y197764D01*
X355363Y197787D01*
X355455Y197895D01*
X355529Y198015D01*
X355583Y198146D01*
X355616Y198284D01*
X355627Y198425D01*
X355624Y198461D01*
Y210595D01*
X355627Y210630D01*
X355616Y210771D01*
X355583Y210909D01*
X355529Y211040D01*
X355483Y211114D01*
X355455Y211161D01*
X355363Y211268D01*
X355336Y211291D01*
X350506Y216121D01*
Y253735D01*
X350543Y253692D01*
X350570Y253669D01*
X352984Y251255D01*
X352940Y251070D01*
X352918Y250787D01*
X352940Y250505D01*
X353006Y250229D01*
X353115Y249967D01*
X353263Y249726D01*
X353447Y249510D01*
X353663Y249326D01*
X353904Y249178D01*
X354166Y249069D01*
X354442Y249003D01*
X354724Y248981D01*
X355007Y249003D01*
X355275Y249067D01*
X350963Y244756D01*
X350936Y244733D01*
X350844Y244625D01*
X350770Y244504D01*
X350716Y244373D01*
X350683Y244236D01*
X350683Y244236D01*
X350672Y244094D01*
X350675Y244059D01*
Y218146D01*
X350672Y218110D01*
X350683Y217969D01*
Y217969D01*
X350716Y217831D01*
X350770Y217700D01*
X350844Y217580D01*
X350936Y217472D01*
X350963Y217449D01*
X351803Y216609D01*
X351759Y216424D01*
X351737Y216142D01*
X351759Y215859D01*
X351825Y215583D01*
X351934Y215322D01*
X352082Y215080D01*
X352266Y214864D01*
X352481Y214680D01*
X352723Y214532D01*
X352985Y214424D01*
X353261Y214357D01*
X353543Y214335D01*
X353826Y214357D01*
X354102Y214424D01*
X354363Y214532D01*
X354605Y214680D01*
X354821Y214864D01*
X355005Y215080D01*
X355153Y215322D01*
X355261Y215583D01*
X355328Y215859D01*
X355344Y216142D01*
X355328Y216424D01*
X355261Y216700D01*
X355153Y216962D01*
X355005Y217204D01*
X354821Y217419D01*
X354605Y217603D01*
X354363Y217751D01*
X354102Y217860D01*
X353826Y217926D01*
X353543Y217948D01*
X353261Y217926D01*
X353076Y217882D01*
X352475Y218483D01*
Y243722D01*
X358092Y249339D01*
X358119Y249362D01*
X358155Y249404D01*
Y249192D01*
X352932Y243968D01*
X352905Y243945D01*
X352813Y243838D01*
X352739Y243717D01*
X352685Y243586D01*
X352652Y243448D01*
X352652Y243448D01*
X352641Y243307D01*
X352643Y243272D01*
Y227594D01*
X352641Y227559D01*
X352652Y227418D01*
Y227418D01*
X352685Y227280D01*
X352739Y227149D01*
X352813Y227028D01*
X352905Y226921D01*
X352932Y226898D01*
X355740Y224089D01*
X355696Y223905D01*
X355674Y223622D01*
X355696Y223339D01*
X355762Y223064D01*
X355871Y222802D01*
X356019Y222560D01*
X356203Y222345D01*
X356418Y222161D01*
X356660Y222012D01*
X356922Y221904D01*
X357198Y221838D01*
X357480Y221815D01*
X357763Y221838D01*
X358039Y221904D01*
X358300Y222012D01*
X358542Y222161D01*
X358758Y222345D01*
X358942Y222560D01*
X359090Y222802D01*
X359198Y223064D01*
X359265Y223339D01*
X359281Y223622D01*
X359265Y223905D01*
X359198Y224180D01*
X359090Y224442D01*
X358942Y224684D01*
X358758Y224899D01*
X358542Y225084D01*
X358300Y225232D01*
X358039Y225340D01*
X357763Y225406D01*
X357480Y225429D01*
X357198Y225406D01*
X357013Y225362D01*
X354443Y227932D01*
Y228538D01*
X354480Y228496D01*
X354507Y228473D01*
X357213Y225766D01*
X357236Y225740D01*
X357343Y225648D01*
X357464Y225574D01*
X357595Y225519D01*
X357733Y225486D01*
X357733D01*
X357874Y225475D01*
X357909Y225478D01*
X359076D01*
X359336Y225218D01*
Y219514D01*
X359166Y219501D01*
X358891Y219435D01*
X358629Y219326D01*
X358387Y219178D01*
X358171Y218994D01*
X357987Y218778D01*
X357839Y218537D01*
X357731Y218275D01*
X357665Y217999D01*
X357642Y217717D01*
X357665Y217434D01*
X357731Y217158D01*
X357839Y216896D01*
X357987Y216655D01*
X358171Y216439D01*
X358387Y216255D01*
X358629Y216107D01*
X358891Y215998D01*
X359166Y215932D01*
X359449Y215910D01*
X359731Y215932D01*
X360007Y215998D01*
X360269Y216107D01*
X360511Y216255D01*
X360726Y216439D01*
X360910Y216655D01*
X361058Y216896D01*
X361167Y217158D01*
X361233Y217434D01*
X361250Y217717D01*
X361233Y217999D01*
X361167Y218275D01*
X361128Y218368D01*
X361139Y218504D01*
X361136Y218539D01*
Y225555D01*
X361139Y225591D01*
X361128Y225732D01*
X361095Y225870D01*
X361041Y226000D01*
X360995Y226074D01*
X360967Y226121D01*
X360875Y226229D01*
X360848Y226252D01*
X360110Y226989D01*
X360087Y227016D01*
X359979Y227108D01*
X359933Y227137D01*
X359859Y227182D01*
X359728Y227237D01*
X359590Y227270D01*
X359449Y227281D01*
X359414Y227278D01*
X358247D01*
X356018Y229507D01*
Y241753D01*
X361241Y246976D01*
X361268Y246999D01*
X361360Y247107D01*
X361434Y247228D01*
X361489Y247359D01*
X361522Y247497D01*
X361533Y247638D01*
X361530Y247673D01*
Y252721D01*
X361533Y252756D01*
X361522Y252897D01*
X361489Y253035D01*
X361434Y253166D01*
X361389Y253240D01*
X361360Y253287D01*
X361268Y253394D01*
X361241Y253417D01*
X356806Y257853D01*
Y289391D01*
X359428Y292013D01*
X361382D01*
X361417Y292011D01*
X361558Y292022D01*
X361559Y292022D01*
X361696Y292055D01*
X361827Y292109D01*
X361948Y292183D01*
X362056Y292275D01*
X362079Y292302D01*
X364500Y294723D01*
Y283558D01*
X364486Y283546D01*
X364077Y283067D01*
X363748Y282530D01*
X363507Y281949D01*
X363360Y281336D01*
X363310Y280709D01*
X363360Y280081D01*
X363507Y279469D01*
X363748Y278887D01*
X364077Y278350D01*
X364486Y277872D01*
X364500Y277860D01*
Y183858D01*
G37*
G54D23*X344882Y303465D02*Y206693D01*
X346457Y296457D02*Y209055D01*
X348031Y213780D02*Y295669D01*
X349606Y294094D02*Y215748D01*
X351181Y254331D02*Y292913D01*
X352756Y291339D02*Y256693D01*
X354331Y257087D02*Y290551D01*
X355906Y289764D02*Y257480D01*
X355118Y242126D02*Y229134D01*
X348110Y306693D02*X344882Y303465D01*
X353150Y303150D02*X346457Y296457D01*
X353150Y312047D02*Y303150D01*
Y312047D02*X353071D01*
X348110Y317008D01*
X357480Y301969D02*X349606Y294094D01*
X348031Y295669D02*X358268Y305906D01*
X359843Y295669D02*X357087D01*
X358268Y305906D02*Y307480D01*
X358110Y317008D02*X362992Y312126D01*
Y304724D01*
X360236Y301969D01*
X368110Y317008D02*X372835Y312283D01*
Y303543D01*
X370079Y300787D01*
X364961D01*
Y298425D02*X370472D01*
X371260Y296850D02*X365354D01*
X370472Y298425D02*X374016Y301969D01*
X375984Y301575D02*X371260Y296850D01*
X374016Y301969D02*Y302598D01*
X378110Y306693D01*
Y317323D02*X383071Y312362D01*
Y304331D01*
X380315Y301575D01*
X375984D01*
X348031Y207480D02*X351575D01*
X351181Y210630D02*X348031Y213780D01*
X351575Y207480D02*X353150Y205906D01*
X351575Y218110D02*X353543Y216142D01*
X357480Y223622D02*X353543Y227559D01*
X353150Y205906D02*Y203150D01*
X350000Y200000D01*
Y199606D01*
X354724Y210630D02*Y198425D01*
X350787Y194488D01*
G54D24*X381890Y194882D02*X368110Y208661D01*
G54D23*X344882Y206693D02*X346850Y204724D01*
X350394D01*
X346457Y209055D02*X348031Y207480D01*
X349606Y215748D02*X354724Y210630D01*
X423425Y214370D02*X411614D01*
X409252Y216732D01*
X419504Y230319D02*X417413Y232409D01*
G54D24*X408268Y194882D02*X381890D01*
G54D23*X351575Y244094D02*Y218110D01*
X354724Y250787D02*X351181Y254331D01*
X352756Y256693D02*X357480Y251969D01*
Y250000D01*
X351575Y244094D01*
X353543Y227559D02*Y243307D01*
X355118Y229134D02*X357874Y226378D01*
X359449D01*
X360236Y225591D01*
Y218504D01*
X359449Y217717D01*
X353543Y243307D02*X359055Y248819D01*
X360630Y247638D02*X355118Y242126D01*
X359055Y248819D02*Y252362D01*
X360630Y252756D02*Y247638D01*
G54D24*X368110Y235039D02*Y279921D01*
Y208661D02*Y235236D01*
G54D23*X374906Y235894D02*Y273524D01*
X359055Y252362D02*X354331Y257087D01*
X355906Y257480D02*X360630Y252756D01*
X417413Y232409D02*Y279098D01*
X407657Y288854D01*
X360236Y301969D02*X357480D01*
X351181Y292913D02*X355906Y297638D01*
X357087Y295669D02*X352756Y291339D01*
X354331Y290551D02*X357874Y294094D01*
X360630D01*
X355906Y297638D02*X359055D01*
X368110Y306693D01*
X364961Y300787D02*X359843Y295669D01*
X360630Y294094D02*X364961Y298425D01*
X365354Y296850D02*X361417Y292913D01*
X359055D01*
X355906Y289764D01*
G54D24*X367323Y280709D02*X368110Y279921D01*
G54D23*X393024Y291642D02*X374906Y273524D01*
G54D24*X467323Y231496D02*X472047D01*
X477559Y237008D01*
Y314567D01*
X474803Y317323D01*
X477559Y309843D02*X459449D01*
X447638Y314173D02*X455118D01*
X459449Y309843D01*
G54D23*X454724Y237402D02*X450984D01*
X454929D02*X461315Y243787D01*
Y260283D01*
X450984Y237402D02*X448228Y234646D01*
G54D24*X471260Y170472D02*X476378Y175591D01*
Y196457D01*
X472047Y200787D01*
X468110D01*
X446457Y176772D02*X446850D01*
X453150Y170472D01*
X471260D01*
G54D25*X446654Y176772D02*X437795D01*
X436811Y177756D01*
G54D24*X468110Y200787D02*X465748Y203150D01*
G54D25*X428740Y198031D02*Y188976D01*
X426772Y187008D01*
X464370Y197047D02*X442126D01*
X439961Y194882D01*
G54D24*X465748Y203150D02*Y229921D01*
X467323Y231496D01*
G54D23*X444488Y238189D02*Y252362D01*
X437402Y259449D01*
X423622Y239370D02*Y261024D01*
X426378Y263780D01*
X433441Y230319D02*X419504D01*
X455118Y214961D02*X437402D01*
X433071Y219291D01*
Y224409D02*X434252D01*
X439764Y218898D01*
X455118D01*
G54D25*X381406Y234265D02*X383006D01*
X383406Y234665D01*
Y235465D01*
X383006Y235865D02*X383406Y235465D01*
X381806Y235865D02*X383006D01*
X381806Y234265D02*Y237465D01*
X382446Y235865D02*X383406Y237465D01*
X384366Y235705D02*X385566D01*
X384366Y237465D02*X385966D01*
X384366Y234265D02*Y237465D01*
Y234265D02*X385966D01*
X386926D02*Y237465D01*
X388526D01*
X389486Y235065D02*Y237465D01*
Y235065D02*X390046Y234265D01*
X390926D01*
X391486Y235065D01*
Y237465D01*
X389486Y235865D02*X391486D01*
X392446Y237465D02*X394446Y234265D01*
X392446D02*X394446Y237465D01*
X395406Y235705D02*X396606D01*
X395406Y237465D02*X397006D01*
X395406Y234265D02*Y237465D01*
Y234265D02*X397006D01*
X397966D02*Y237465D01*
Y234265D02*X399966Y237465D01*
Y234265D02*Y237465D01*
X402366Y234265D02*Y237065D01*
X402766Y237465D01*
X403566D01*
X403966Y237065D01*
Y234265D02*Y237065D01*
X404926Y234265D02*Y237465D01*
Y234265D02*X406926Y237465D01*
Y234265D02*Y237465D01*
X408286Y234265D02*Y237465D01*
X409326Y234265D02*X409886Y234825D01*
Y236905D01*
X409326Y237465D02*X409886Y236905D01*
X407886Y237465D02*X409326D01*
X407886Y234265D02*X409326D01*
X380618Y240564D02*Y242164D01*
X381018Y243764D01*
X381818Y242164D01*
X382618Y243764D01*
X383018Y242164D01*
Y240564D02*Y242164D01*
X383978Y241364D02*Y243764D01*
Y241364D02*X384538Y240564D01*
X385418D01*
X385978Y241364D01*
Y243764D01*
X383978Y242164D02*X385978D01*
X386938Y240564D02*X388538D01*
X387738D02*Y243764D01*
X390058D02*X391098D01*
X389498Y243204D02*X390058Y243764D01*
X389498Y241124D02*Y243204D01*
Y241124D02*X390058Y240564D01*
X391098D01*
X392058D02*Y243764D01*
X394058Y240564D02*Y243764D01*
X392058Y242164D02*X394058D01*
X395018Y242004D02*X396218D01*
X395018Y243764D02*X396618D01*
X395018Y240564D02*Y243764D01*
Y240564D02*X396618D01*
X397578D02*Y243764D01*
Y240564D02*X399578Y243764D01*
Y240564D02*Y243764D01*
X402378Y240564D02*Y243764D01*
X403418Y240564D02*X403978Y241124D01*
Y243204D01*
X403418Y243764D02*X403978Y243204D01*
X401978Y243764D02*X403418D01*
X401978Y240564D02*X403418D01*
X404938Y241364D02*Y243764D01*
Y241364D02*X405498Y240564D01*
X406378D01*
X406938Y241364D01*
Y243764D01*
X404938Y242164D02*X406938D01*
X409498Y240564D02*X409898Y240964D01*
X408298Y240564D02*X409498D01*
X407898Y240964D02*X408298Y240564D01*
X407898Y240964D02*Y241764D01*
X408298Y242164D01*
X409498D01*
X409898Y242564D01*
Y243364D01*
X409498Y243764D02*X409898Y243364D01*
X408298Y243764D02*X409498D01*
X407898Y243364D02*X408298Y243764D01*
X377772Y250063D02*X379372D01*
X379772Y249663D01*
Y248703D02*Y249663D01*
X379372Y248303D02*X379772Y248703D01*
X378172Y248303D02*X379372D01*
X378172Y246863D02*Y250063D01*
X377772Y246863D02*X379372D01*
X379772Y247263D01*
Y247903D01*
X379372Y248303D02*X379772Y247903D01*
X380732Y246863D02*Y250063D01*
X382332D01*
X383292Y246863D02*X384092D01*
X383692D02*Y250063D01*
X383292D02*X384092D01*
X385052Y246863D02*Y250063D01*
Y246863D02*X387052Y250063D01*
Y246863D02*Y250063D01*
X388012Y246863D02*Y250063D01*
Y248463D02*X389612Y246863D01*
X388012Y248463D02*X389612Y250063D01*
X390572Y248303D02*X391772D01*
X390572Y250063D02*X392172D01*
X390572Y246863D02*Y250063D01*
Y246863D02*X392172D01*
X393132D02*Y250063D01*
Y246863D02*X395132Y250063D01*
Y246863D02*Y250063D01*
X396092Y246863D02*Y250063D01*
X397692D01*
X398652Y246863D02*X399452D01*
X399052D02*Y250063D01*
X398652D02*X399452D01*
X400972D02*X402012D01*
X400412Y249503D02*X400972Y250063D01*
X400412Y247423D02*Y249503D01*
Y247423D02*X400972Y246863D01*
X402012D01*
X402972D02*Y250063D01*
X404972Y246863D02*Y250063D01*
X402972Y248463D02*X404972D01*
X405932Y246863D02*X407532D01*
X406732D02*Y250063D01*
X408492Y248303D02*X409692D01*
X408492Y250063D02*X410092D01*
X408492Y246863D02*Y250063D01*
Y246863D02*X410092D01*
X411052D02*Y250063D01*
Y246863D02*X413052Y250063D01*
Y246863D02*Y250063D01*
X414012D02*X414412D01*
G54D26*X456299Y178740D03*
Y181496D03*
Y184252D03*
G54D22*G36*
X345110Y309772D02*Y303772D01*
X351110D01*
Y309772D01*
X345110D01*
G37*
G54D27*X358110Y306772D03*
X368110D03*
X378110D03*
X388110D03*
G54D22*G36*
X461803Y320323D02*Y314323D01*
X467803D01*
Y320323D01*
X461803D01*
G37*
G54D27*X474803Y317323D03*
G54D22*G36*
X444638Y309102D02*Y303102D01*
X450638D01*
Y309102D01*
X444638D01*
G37*
G54D27*X447638Y296102D03*
G54D22*G36*
X345110Y320323D02*Y314323D01*
X351110D01*
Y320323D01*
X345110D01*
G37*
G54D27*X358110Y317323D03*
X368110D03*
X378110D03*
X388110D03*
X398110D03*
G54D28*X426772Y187008D03*
G54D26*X433071Y219291D03*
Y224409D03*
X423622Y239370D03*
G54D28*X425984Y204528D03*
G54D26*X423228Y214567D03*
G54D28*X350787Y189370D03*
G54D26*Y194488D03*
X350000Y199606D03*
X359449Y217717D03*
X386614Y220079D03*
Y214961D03*
Y225197D03*
X391732Y220079D03*
Y214961D03*
Y225197D03*
X409252Y216732D03*
X381496Y220079D03*
Y225197D03*
Y214961D03*
X374906Y235894D03*
X438583Y201181D03*
G54D28*X450787Y200787D03*
X439961Y194882D03*
X436024Y191535D03*
X446457Y176772D03*
X472047Y171260D03*
X472244Y166339D03*
X464370Y197047D03*
G54D26*X350394Y204724D03*
X351181Y210630D03*
X354724Y250787D03*
X353543Y216142D03*
X357480Y223622D03*
G54D27*X367323Y280709D03*
G54D28*X427756Y166142D03*
X436811Y177756D03*
X412992Y189370D03*
X428740Y198031D03*
G54D27*X408268Y194882D03*
G54D28*X403937Y256299D03*
G54D26*X440945Y260630D03*
X437402Y259449D03*
X470472D03*
X461315Y260283D03*
X446850Y271654D03*
G54D27*X447638Y314173D03*
G54D26*X427559Y273622D03*
G54D27*X416535Y314370D03*
G54D26*X426378Y263780D03*
X407874Y293307D03*
X393024Y291642D03*
X407657Y288854D03*
X455118Y214961D03*
Y218898D03*
X444488Y238189D03*
X455118Y249803D03*
X448228Y234646D03*
X454724Y237402D03*
X433441Y230319D03*
G54D29*G54D30*G54D29*G54D30*G54D29*G54D30*G54D29*G54D30*G54D31*G54D29*G54D31*G54D29*G54D30*G54D31*G54D30*G54D31*G54D30*G54D32*M02*
