G04 start of page 8 for group -4079 idx -4079 *
G04 Title: (unknown), topsilk *
G04 Creator: pcb 4.0.2 *
G04 CreationDate: Sun Feb  4 07:02:53 2018 UTC *
G04 For: jeroen *
G04 Format: Gerber/RS-274X *
G04 PCB-Dimensions (mil): 6000.00 5000.00 *
G04 PCB-Coordinate-Origin: lower left *
%MOIN*%
%FSLAX25Y25*%
%LNTOPSILK*%
%ADD47C,0.0060*%
%ADD46C,0.0080*%
%ADD45C,0.0059*%
%ADD44C,0.0100*%
G54D44*X437795Y202756D02*X452362D01*
Y225591D02*X468504D01*
X452362Y207087D02*X468504D01*
X452362D02*Y202756D01*
X437795Y229921D02*Y202756D01*
Y229921D02*X452362D01*
Y225591D01*
G54D45*X347638Y288951D02*Y286551D01*
Y288951D02*X348198Y289751D01*
X349078D01*
X349638Y288951D01*
Y286551D01*
X347638Y288151D02*X349638D01*
X352038Y289751D02*Y286551D01*
Y289751D02*X353238Y288151D01*
X354438Y289751D01*
Y286551D01*
X355398Y288951D02*Y286551D01*
Y288951D02*X355958Y289751D01*
X356838D01*
X357398Y288951D01*
Y286551D01*
X355398Y288151D02*X357398D01*
X358918Y286551D02*X359958D01*
X358358Y287111D02*X358918Y286551D01*
X358358Y289191D02*Y287111D01*
Y289191D02*X358918Y289751D01*
X359958D01*
X361318D02*Y286551D01*
X360918Y289751D02*X362518D01*
X362918Y289351D01*
Y288551D01*
X362518Y288151D02*X362918Y288551D01*
X361318Y288151D02*X362518D01*
X363878Y289751D02*Y286551D01*
X365478D01*
X366438Y289751D02*Y286951D01*
X366838Y286551D01*
X367638D01*
X368038Y286951D01*
Y289751D02*Y286951D01*
X370598Y289751D02*X370998Y289351D01*
X369398Y289751D02*X370598D01*
X368998Y289351D02*X369398Y289751D01*
X368998Y289351D02*Y288551D01*
X369398Y288151D01*
X370598D01*
X370998Y287751D01*
Y286951D01*
X370598Y286551D02*X370998Y286951D01*
X369398Y286551D02*X370598D01*
X368998Y286951D02*X369398Y286551D01*
X373398Y289751D02*Y286551D01*
Y289751D02*X374998D01*
X373398Y288311D02*X374598D01*
X375958Y289351D02*Y286951D01*
Y289351D02*X376358Y289751D01*
X377158D01*
X377558Y289351D01*
Y286951D01*
X377158Y286551D02*X377558Y286951D01*
X376358Y286551D02*X377158D01*
X375958Y286951D02*X376358Y286551D01*
X378518Y289751D02*X380118D01*
X380518Y289351D01*
Y288551D01*
X380118Y288151D02*X380518Y288551D01*
X378918Y288151D02*X380118D01*
X378918Y289751D02*Y286551D01*
X379558Y288151D02*X380518Y286551D01*
X382918Y288951D02*Y286551D01*
Y288951D02*X383478Y289751D01*
X384358D01*
X384918Y288951D01*
Y286551D01*
X382918Y288151D02*X384918D01*
X385878Y289751D02*Y286551D01*
Y289751D02*X387878Y286551D01*
Y289751D02*Y286551D01*
X388838Y289751D02*X390438D01*
X389638D02*Y286551D01*
X392998Y289751D02*X393398Y289351D01*
X391798Y289751D02*X392998D01*
X391398Y289351D02*X391798Y289751D01*
X391398Y289351D02*Y288551D01*
X391798Y288151D01*
X392998D01*
X393398Y287751D01*
Y286951D01*
X392998Y286551D02*X393398Y286951D01*
X391798Y286551D02*X392998D01*
X391398Y286951D02*X391798Y286551D01*
X346076Y294120D02*Y292520D01*
Y293320D02*X349276D01*
Y295080D02*X346076Y297080D01*
Y295080D02*X349276Y297080D01*
X346076Y298440D02*X349276D01*
X346076Y299480D02*X346636Y300040D01*
X348716D01*
X349276Y299480D02*X348716Y300040D01*
X349276Y299480D02*Y298040D01*
X346076Y299480D02*Y298040D01*
X356706Y293332D02*Y291732D01*
Y293332D02*X357106Y293732D01*
X357906D01*
X358306Y293332D02*X357906Y293732D01*
X358306Y293332D02*Y292132D01*
X356706D02*X359906D01*
X358306Y292772D02*X359906Y293732D01*
Y294692D02*X356706Y296692D01*
Y294692D02*X359906Y296692D01*
X356706Y298052D02*X359906D01*
X356706Y299092D02*X357266Y299652D01*
X359346D01*
X359906Y299092D02*X359346Y299652D01*
X359906Y299092D02*Y297652D01*
X356706Y299092D02*Y297652D01*
X366548Y294107D02*Y293307D01*
Y293707D02*X369748D01*
Y294107D02*Y293307D01*
X366948Y295067D02*X369348D01*
X366948D02*X366548Y295467D01*
Y296267D02*Y295467D01*
Y296267D02*X366948Y296667D01*
X369348D01*
X369748Y296267D02*X369348Y296667D01*
X369748Y296267D02*Y295467D01*
X369348Y295067D02*X369748Y295467D01*
X369348Y297627D02*X369748Y298027D01*
X366948Y297627D02*X369348D01*
X366948D02*X366548Y298027D01*
Y298827D02*Y298027D01*
Y298827D02*X366948Y299227D01*
X369348D01*
X369748Y298827D02*X369348Y299227D01*
X369748Y298827D02*Y298027D01*
X368948Y297627D02*X367348Y299227D01*
X378224Y294901D02*Y293701D01*
X379984Y295301D02*Y293701D01*
X376784D02*X379984D01*
X376784Y295301D02*Y293701D01*
Y296261D02*X379984D01*
X376784D02*X379984Y298261D01*
X376784D02*X379984D01*
X386627Y292939D02*X387027Y293339D01*
X386627Y292939D02*Y291739D01*
X387027Y291339D02*X386627Y291739D01*
X387027Y291339D02*X389427D01*
X389827Y291739D01*
Y292939D02*Y291739D01*
Y292939D02*X389427Y293339D01*
X388627D02*X389427D01*
X388227Y292939D02*X388627Y293339D01*
X388227Y292939D02*Y292139D01*
X386627Y294299D02*X389827D01*
X386627D02*X389827Y296299D01*
X386627D02*X389827D01*
X386627Y297659D02*X389827D01*
X386627Y298699D02*X387187Y299259D01*
X389267D01*
X389827Y298699D02*X389267Y299259D01*
X389827Y298699D02*Y297259D01*
X386627Y298699D02*Y297259D01*
X395479Y308846D02*Y305646D01*
X395079Y308846D02*X396679D01*
X397079Y308446D01*
Y307646D01*
X396679Y307246D02*X397079Y307646D01*
X395479Y307246D02*X396679D01*
X398039Y308846D02*X399639D01*
X400039Y308446D01*
Y307646D01*
X399639Y307246D02*X400039Y307646D01*
X398439Y307246D02*X399639D01*
X398439Y308846D02*Y305646D01*
X399079Y307246D02*X400039Y305646D01*
X400999Y308446D02*Y306046D01*
Y308446D02*X401399Y308846D01*
X402199D01*
X402599Y308446D01*
Y306046D01*
X402199Y305646D02*X402599Y306046D01*
X401399Y305646D02*X402199D01*
X400999Y306046D02*X401399Y305646D01*
X405159Y308846D02*X405559Y308446D01*
X403959Y308846D02*X405159D01*
X403559Y308446D02*X403959Y308846D01*
X403559Y308446D02*Y306046D01*
X403959Y305646D01*
X405159D01*
X405559Y306046D01*
Y306846D02*Y306046D01*
X405159Y307246D02*X405559Y306846D01*
X404359Y307246D02*X405159D01*
X404331Y321050D02*Y317850D01*
Y321050D02*X405531Y319450D01*
X406731Y321050D01*
Y317850D01*
X407691Y320650D02*Y318250D01*
Y320650D02*X408091Y321050D01*
X408891D01*
X409291Y320650D01*
Y318250D01*
X408891Y317850D02*X409291Y318250D01*
X408091Y317850D02*X408891D01*
X407691Y318250D02*X408091Y317850D01*
X410251Y321050D02*Y318250D01*
X410651Y317850D01*
X411451D01*
X411851Y318250D01*
Y321050D02*Y318250D01*
X414411Y321050D02*X414811Y320650D01*
X413211Y321050D02*X414411D01*
X412811Y320650D02*X413211Y321050D01*
X412811Y320650D02*Y319850D01*
X413211Y319450D01*
X414411D01*
X414811Y319050D01*
Y318250D01*
X414411Y317850D02*X414811Y318250D01*
X413211Y317850D02*X414411D01*
X412811Y318250D02*X413211Y317850D01*
X415771Y319610D02*X416971D01*
X415771Y317850D02*X417371D01*
X415771Y321050D02*Y317850D01*
Y321050D02*X417371D01*
X452256Y315722D02*X453856D01*
X456256D02*X457856D01*
X457056Y316522D02*Y314922D01*
G54D44*X345961Y160110D02*X416827D01*
X345961Y260504D02*Y160110D01*
Y260504D02*X416827D01*
Y160110D01*
X345961Y183732D02*X416827D01*
X345961Y260504D02*Y283732D01*
X416827D01*
Y260504D01*
X459803Y312323D02*X479803D01*
Y322323D02*Y312323D01*
X459803Y322323D02*X479803D01*
X459803D02*Y312323D01*
X469803Y322323D02*Y312323D01*
X459803Y322323D02*X469803D01*
X343110Y301772D02*X393110D01*
Y311772D02*Y301772D01*
X343110Y311772D02*X393110D01*
X343110D02*Y301772D01*
X353110Y311772D02*Y301772D01*
X343110Y311772D02*X353110D01*
X343110Y312323D02*X403110D01*
Y322323D02*Y312323D01*
X343110Y322323D02*X403110D01*
X343110D02*Y312323D01*
X353110Y322323D02*Y312323D01*
X343110Y322323D02*X353110D01*
X460191Y311287D02*Y290587D01*
X478491D01*
Y311287D01*
X460191D01*
G54D46*X466342Y289374D02*X467128D01*
X466342Y283864D02*X467128D01*
G54D44*X421209Y280366D02*X440209D01*
Y311366D02*Y280366D01*
X421209Y311366D02*X440209D01*
X421209Y293366D02*Y280366D01*
Y311366D02*Y298366D01*
Y293366D02*G75*G03X421209Y298366I0J2500D01*G01*
X442638Y311102D02*Y291102D01*
X452638D01*
Y311102D01*
X442638D01*
Y301102D02*X452638D01*
Y311102D01*
G54D46*X466342Y282681D02*X467128D01*
X466342Y277171D02*X467128D01*
G54D47*X446063Y267717D02*X454724D01*
Y267323D01*
Y265748D02*Y265354D01*
Y263780D02*Y263386D01*
Y261811D02*Y261417D01*
Y259843D02*Y259449D01*
X446063D01*
Y259843D01*
Y261417D02*Y261811D01*
Y263386D02*Y263780D01*
Y265354D02*Y265748D01*
Y267323D02*Y267717D01*
X445276Y268504D01*
X438583Y207677D02*X439370D01*
X449016Y208071D02*Y207677D01*
X443110Y203543D02*X446457D01*
X440354Y208071D02*Y207677D01*
X449016Y225000D02*Y224606D01*
X443110Y229134D02*X446457D01*
X440354Y225000D02*Y224606D01*
G54D44*X432709Y189908D02*Y176008D01*
X420909Y189908D02*X432709D01*
X420909D02*Y176008D01*
X432709D01*
G54D47*X421850Y158465D02*X437598D01*
X421850Y174213D02*Y158465D01*
Y174213D02*X437598D01*
Y158465D01*
X450984Y176378D02*X461220D01*
X450984Y186614D02*Y176378D01*
Y186614D02*X461220D01*
Y176378D01*
X462008Y175591D01*
X445276Y158465D02*X461024D01*
X445276Y174213D02*Y158465D01*
Y174213D02*X461024D01*
Y158465D01*
G54D46*X472638Y181495D02*X473424D01*
X472638Y175985D02*X473424D01*
X472638Y189172D02*X473424D01*
X472638Y183662D02*X473424D01*
X472638Y196653D02*X473424D01*
X472638Y191143D02*X473424D01*
X472638Y203149D02*X473424D01*
X472638Y197639D02*X473424D01*
X472245Y163779D02*X473031D01*
X472245Y158269D02*X473031D01*
G54D45*X425787Y202884D02*X427107D01*
X427437Y202554D01*
Y201894D01*
X427107Y201564D02*X427437Y201894D01*
X426117Y201564D02*X427107D01*
X426117Y202884D02*Y200244D01*
X426645Y201564D02*X427437Y200244D01*
X428229Y202356D02*X428757Y202884D01*
Y200244D01*
X428229D02*X429219D01*
X430011Y200574D02*X430341Y200244D01*
X430011Y201102D02*Y200574D01*
Y201102D02*X430473Y201564D01*
X430869D01*
X431331Y201102D01*
Y200574D01*
X431001Y200244D02*X431331Y200574D01*
X430341Y200244D02*X431001D01*
X430011Y202026D02*X430473Y201564D01*
X430011Y202554D02*Y202026D01*
Y202554D02*X430341Y202884D01*
X431001D01*
X431331Y202554D01*
Y202026D01*
X430869Y201564D02*X431331Y202026D01*
X429921Y220207D02*X431241D01*
X431571Y219877D01*
Y219217D01*
X431241Y218887D02*X431571Y219217D01*
X430251Y218887D02*X431241D01*
X430251Y220207D02*Y217567D01*
X430779Y218887D02*X431571Y217567D01*
X432363Y219679D02*X432891Y220207D01*
Y217567D01*
X432363D02*X433353D01*
X434475D02*X435795Y220207D01*
X434145D02*X435795D01*
X425265Y212055D02*X426123D01*
X424803Y212517D02*X425265Y212055D01*
X424803Y214233D02*Y212517D01*
Y214233D02*X425265Y214695D01*
X426123D01*
X427905D02*X428235Y214365D01*
X427245Y214695D02*X427905D01*
X426915Y214365D02*X427245Y214695D01*
X426915Y214365D02*Y212385D01*
X427245Y212055D01*
X427905Y213507D02*X428235Y213177D01*
X426915Y213507D02*X427905D01*
X427245Y212055D02*X427905D01*
X428235Y212385D01*
Y213177D02*Y212385D01*
X429921Y225325D02*X431241D01*
X431571Y224995D01*
Y224335D01*
X431241Y224005D02*X431571Y224335D01*
X430251Y224005D02*X431241D01*
X430251Y225325D02*Y222685D01*
X430779Y224005D02*X431571Y222685D01*
X432363Y224797D02*X432891Y225325D01*
Y222685D01*
X432363D02*X433353D01*
X435135Y225325D02*X435465Y224995D01*
X434475Y225325D02*X435135D01*
X434145Y224995D02*X434475Y225325D01*
X434145Y224995D02*Y223015D01*
X434475Y222685D01*
X435135Y224137D02*X435465Y223807D01*
X434145Y224137D02*X435135D01*
X434475Y222685D02*X435135D01*
X435465Y223015D01*
Y223807D02*Y223015D01*
X443966Y197487D02*X444824D01*
X443504Y197949D02*X443966Y197487D01*
X443504Y199665D02*Y197949D01*
Y199665D02*X443966Y200127D01*
X444824D01*
X445616D02*Y197487D01*
Y200127D02*X447266Y197487D01*
Y200127D02*Y197487D01*
X448058Y199599D02*X448586Y200127D01*
Y197487D01*
X448058D02*X449048D01*
X427189Y193423D02*X427849D01*
X427519D02*Y190783D01*
X427189D02*X427849D01*
X429103D02*X429961D01*
X428641Y191245D02*X429103Y190783D01*
X428641Y192961D02*Y191245D01*
Y192961D02*X429103Y193423D01*
X429961D01*
X430753D02*X432073D01*
X430753D02*Y192103D01*
X431083Y192433D01*
X431743D01*
X432073Y192103D01*
Y191113D01*
X431743Y190783D02*X432073Y191113D01*
X431083Y190783D02*X431743D01*
X430753Y191113D02*X431083Y190783D01*
X451378Y190088D02*X452038D01*
X451708D02*Y187448D01*
X451378D02*X452038D01*
X453292D02*X454150D01*
X452830Y187910D02*X453292Y187448D01*
X452830Y189626D02*Y187910D01*
Y189626D02*X453292Y190088D01*
X454150D01*
X454942Y189560D02*X455470Y190088D01*
Y187448D01*
X454942D02*X455932D01*
X439438Y184102D02*X440296D01*
X438976Y184564D02*X439438Y184102D01*
X438976Y186280D02*Y184564D01*
Y186280D02*X439438Y186742D01*
X440296D01*
X441418Y184102D02*X442738Y186742D01*
X441088D02*X442738D01*
X474084Y171307D02*X474942D01*
X473622Y171769D02*X474084Y171307D01*
X473622Y173485D02*Y171769D01*
Y173485D02*X474084Y173947D01*
X474942D01*
X475734Y173419D02*X476262Y173947D01*
Y171307D01*
X475734D02*X476724D01*
X477516Y173419D02*X478044Y173947D01*
Y171307D01*
X477516D02*X478506D01*
X439764Y177096D02*Y174456D01*
X441084D01*
X441876Y176568D02*X442404Y177096D01*
Y174456D01*
X441876D02*X442866D01*
X463976Y174143D02*Y171503D01*
X465296D01*
X466088Y173813D02*X466418Y174143D01*
X467408D01*
X467738Y173813D01*
Y173153D01*
X466088Y171503D02*X467738Y173153D01*
X466088Y171503D02*X467738D01*
X464241Y165401D02*X465099D01*
X463779Y165863D02*X464241Y165401D01*
X463779Y167579D02*Y165863D01*
Y167579D02*X464241Y168041D01*
X465099D01*
X465891Y167513D02*X466419Y168041D01*
Y165401D01*
X465891D02*X466881D01*
X467673Y167711D02*X468003Y168041D01*
X468993D01*
X469323Y167711D01*
Y167051D01*
X467673Y165401D02*X469323Y167051D01*
X467673Y165401D02*X469323D01*
X460698Y188039D02*X461556D01*
X460236Y188501D02*X460698Y188039D01*
X460236Y190217D02*Y188501D01*
Y190217D02*X460698Y190679D01*
X461556D01*
X462348Y190151D02*X462876Y190679D01*
Y188039D01*
X462348D02*X463338D01*
X464130Y188369D02*X464460Y188039D01*
X464130Y190349D02*Y188369D01*
Y190349D02*X464460Y190679D01*
X465120D01*
X465450Y190349D01*
Y188369D01*
X465120Y188039D02*X465450Y188369D01*
X464460Y188039D02*X465120D01*
X464130Y188699D02*X465450Y190019D01*
X462076Y192173D02*X462934D01*
X461614Y192635D02*X462076Y192173D01*
X461614Y194351D02*Y192635D01*
Y194351D02*X462076Y194813D01*
X462934D01*
X464056Y192173D02*X465046Y193493D01*
Y194483D02*Y193493D01*
X464716Y194813D02*X465046Y194483D01*
X464056Y194813D02*X464716D01*
X463726Y194483D02*X464056Y194813D01*
X463726Y194483D02*Y193823D01*
X464056Y193493D01*
X465046D01*
X462076Y200441D02*X462934D01*
X461614Y200903D02*X462076Y200441D01*
X461614Y202619D02*Y200903D01*
Y202619D02*X462076Y203081D01*
X462934D01*
X463726Y200771D02*X464056Y200441D01*
X463726Y201299D02*Y200771D01*
Y201299D02*X464188Y201761D01*
X464584D01*
X465046Y201299D01*
Y200771D01*
X464716Y200441D02*X465046Y200771D01*
X464056Y200441D02*X464716D01*
X463726Y202223D02*X464188Y201761D01*
X463726Y202751D02*Y202223D01*
Y202751D02*X464056Y203081D01*
X464716D01*
X465046Y202751D01*
Y202223D01*
X464584Y201761D02*X465046Y202223D01*
X452259Y320970D02*Y318330D01*
X451929Y320970D02*X453249D01*
X453579Y320640D01*
Y319980D01*
X453249Y319650D02*X453579Y319980D01*
X452259Y319650D02*X453249D01*
X454371Y320970D02*Y319650D01*
X454701Y318330D01*
X455361Y319650D01*
X456021Y318330D01*
X456351Y319650D01*
Y320970D02*Y319650D01*
X457143Y320970D02*X458463D01*
X458793Y320640D01*
Y319980D01*
X458463Y319650D02*X458793Y319980D01*
X457473Y319650D02*X458463D01*
X457473Y320970D02*Y318330D01*
X458001Y319650D02*X458793Y318330D01*
X428808Y318944D02*X429666D01*
X428346Y319406D02*X428808Y318944D01*
X428346Y321122D02*Y319406D01*
Y321122D02*X428808Y321584D01*
X429666D01*
X430458Y321056D02*X430986Y321584D01*
Y318944D01*
X430458D02*X431448D01*
X458571Y308924D02*Y308264D01*
X455931Y308594D02*X458571D01*
X455931Y308924D02*Y308264D01*
Y307010D02*Y306152D01*
X456393Y307472D02*X455931Y307010D01*
X456393Y307472D02*X458109D01*
X458571Y307010D01*
Y306152D01*
X456921Y305360D02*X458571Y304040D01*
X456921Y305360D02*Y303710D01*
X455931Y304040D02*X458571D01*
X414535Y310064D02*X415195D01*
X414865D02*Y307424D01*
X414535D02*X415195D01*
X416449D02*X417307D01*
X415987Y307886D02*X416449Y307424D01*
X415987Y309602D02*Y307886D01*
Y309602D02*X416449Y310064D01*
X417307D01*
X418099Y309734D02*X418429Y310064D01*
X419089D01*
X419419Y309734D01*
X419089Y307424D02*X419419Y307754D01*
X418429Y307424D02*X419089D01*
X418099Y307754D02*X418429Y307424D01*
Y308876D02*X419089D01*
X419419Y309734D02*Y309206D01*
Y308546D02*Y307754D01*
Y308546D02*X419089Y308876D01*
X419419Y309206D02*X419089Y308876D01*
X411811Y301435D02*X413131D01*
X413461Y301105D01*
Y300445D01*
X413131Y300115D02*X413461Y300445D01*
X412141Y300115D02*X413131D01*
X412141Y301435D02*Y298795D01*
X412669Y300115D02*X413461Y298795D01*
X414253Y301105D02*X414583Y301435D01*
X415573D01*
X415903Y301105D01*
Y300445D01*
X414253Y298795D02*X415903Y300445D01*
X414253Y298795D02*X415903D01*
X416695Y299125D02*X417025Y298795D01*
X416695Y301105D02*Y299125D01*
Y301105D02*X417025Y301435D01*
X417685D01*
X418015Y301105D01*
Y299125D01*
X417685Y298795D02*X418015Y299125D01*
X417025Y298795D02*X417685D01*
X416695Y299455D02*X418015Y300775D01*
X438840Y315852D02*X439170Y315522D01*
X437850Y315852D02*X438840D01*
X437520Y315522D02*X437850Y315852D01*
X437520Y315522D02*Y314862D01*
X437850Y314532D01*
X438840D01*
X439170Y314202D01*
Y313542D01*
X438840Y313212D02*X439170Y313542D01*
X437850Y313212D02*X438840D01*
X437520Y313542D02*X437850Y313212D01*
X440292Y315852D02*Y313212D01*
X439962Y315852D02*X441282D01*
X441612Y315522D01*
Y314862D01*
X441282Y314532D02*X441612Y314862D01*
X440292Y314532D02*X441282D01*
X442404Y315852D02*Y313212D01*
Y314532D02*X443724Y315852D01*
X442404Y314532D02*X443724Y313212D01*
X398570Y288892D02*X399890D01*
X400220Y288562D01*
Y287902D01*
X399890Y287572D02*X400220Y287902D01*
X398900Y287572D02*X399890D01*
X398900Y288892D02*Y286252D01*
X399428Y287572D02*X400220Y286252D01*
X401012Y288364D02*X401540Y288892D01*
Y286252D01*
X401012D02*X402002D01*
X403124D02*X404114Y287572D01*
Y288562D02*Y287572D01*
X403784Y288892D02*X404114Y288562D01*
X403124Y288892D02*X403784D01*
X402794Y288562D02*X403124Y288892D01*
X402794Y288562D02*Y287902D01*
X403124Y287572D01*
X404114D01*
X412273Y287645D02*X413131D01*
X411811Y288107D02*X412273Y287645D01*
X411811Y289823D02*Y288107D01*
Y289823D02*X412273Y290285D01*
X413131D01*
X413923Y289757D02*X414451Y290285D01*
Y287645D01*
X413923D02*X414913D01*
X415705Y289955D02*X416035Y290285D01*
X416695D01*
X417025Y289955D01*
X416695Y287645D02*X417025Y287975D01*
X416035Y287645D02*X416695D01*
X415705Y287975D02*X416035Y287645D01*
Y289097D02*X416695D01*
X417025Y289955D02*Y289427D01*
Y288767D02*Y287975D01*
Y288767D02*X416695Y289097D01*
X417025Y289427D02*X416695Y289097D01*
X474677Y285288D02*X475535D01*
X474215Y285750D02*X474677Y285288D01*
X474215Y287466D02*Y285750D01*
Y287466D02*X474677Y287928D01*
X475535D01*
X476327Y287598D02*X476657Y287928D01*
X477647D01*
X477977Y287598D01*
Y286938D01*
X476327Y285288D02*X477977Y286938D01*
X476327Y285288D02*X477977D01*
X475070Y278595D02*X475928D01*
X474608Y279057D02*X475070Y278595D01*
X474608Y280773D02*Y279057D01*
Y280773D02*X475070Y281235D01*
X475928D01*
X476720Y280905D02*X477050Y281235D01*
X477710D01*
X478040Y280905D01*
X477710Y278595D02*X478040Y278925D01*
X477050Y278595D02*X477710D01*
X476720Y278925D02*X477050Y278595D01*
Y280047D02*X477710D01*
X478040Y280905D02*Y280377D01*
Y279717D02*Y278925D01*
Y279717D02*X477710Y280047D01*
X478040Y280377D02*X477710Y280047D01*
X430905Y279459D02*X432225D01*
X432555Y279129D01*
Y278469D01*
X432225Y278139D02*X432555Y278469D01*
X431235Y278139D02*X432225D01*
X431235Y279459D02*Y276819D01*
X431763Y278139D02*X432555Y276819D01*
X433347Y279129D02*X433677Y279459D01*
X434337D01*
X434667Y279129D01*
X434337Y276819D02*X434667Y277149D01*
X433677Y276819D02*X434337D01*
X433347Y277149D02*X433677Y276819D01*
Y278271D02*X434337D01*
X434667Y279129D02*Y278601D01*
Y277941D02*Y277149D01*
Y277941D02*X434337Y278271D01*
X434667Y278601D02*X434337Y278271D01*
X459320Y270716D02*X460178D01*
X458858Y271178D02*X459320Y270716D01*
X458858Y272894D02*Y271178D01*
Y272894D02*X459320Y273356D01*
X460178D01*
X460970Y271706D02*X462290Y273356D01*
X460970Y271706D02*X462620D01*
X462290Y273356D02*Y270716D01*
X448031Y278081D02*X449351D01*
X449681Y277751D01*
Y277091D01*
X449351Y276761D02*X449681Y277091D01*
X448361Y276761D02*X449351D01*
X448361Y278081D02*Y275441D01*
X448889Y276761D02*X449681Y275441D01*
X450473Y277751D02*X450803Y278081D01*
X451793D01*
X452123Y277751D01*
Y277091D01*
X450473Y275441D02*X452123Y277091D01*
X450473Y275441D02*X452123D01*
X442588Y275244D02*X443446D01*
X442126Y275706D02*X442588Y275244D01*
X442126Y277422D02*Y275706D01*
Y277422D02*X442588Y277884D01*
X443446D01*
X445228D02*X445558Y277554D01*
X444568Y277884D02*X445228D01*
X444238Y277554D02*X444568Y277884D01*
X444238Y277554D02*Y275574D01*
X444568Y275244D01*
X445228Y276696D02*X445558Y276366D01*
X444238Y276696D02*X445228D01*
X444568Y275244D02*X445228D01*
X445558Y275574D01*
Y276366D02*Y275574D01*
X471102Y266923D02*X472422D01*
X472752Y266593D01*
Y265933D01*
X472422Y265603D02*X472752Y265933D01*
X471432Y265603D02*X472422D01*
X471432Y266923D02*Y264283D01*
X471960Y265603D02*X472752Y264283D01*
X473544Y266593D02*X473874Y266923D01*
X474864D01*
X475194Y266593D01*
Y265933D01*
X473544Y264283D02*X475194Y265933D01*
X473544Y264283D02*X475194D01*
X475986Y266593D02*X476316Y266923D01*
X477306D01*
X477636Y266593D01*
Y265933D01*
X475986Y264283D02*X477636Y265933D01*
X475986Y264283D02*X477636D01*
X431102Y265482D02*X432422D01*
X432752Y265152D01*
Y264492D01*
X432422Y264162D02*X432752Y264492D01*
X431432Y264162D02*X432422D01*
X431432Y265482D02*Y262842D01*
X431960Y264162D02*X432752Y262842D01*
X433544Y263832D02*X434864Y265482D01*
X433544Y263832D02*X435194D01*
X434864Y265482D02*Y262842D01*
X422834Y249734D02*X424154D01*
X424484Y249404D01*
Y248744D01*
X424154Y248414D02*X424484Y248744D01*
X423164Y248414D02*X424154D01*
X423164Y249734D02*Y247094D01*
X423692Y248414D02*X424484Y247094D01*
X425276Y249734D02*X426596D01*
X425276D02*Y248414D01*
X425606Y248744D01*
X426266D01*
X426596Y248414D01*
Y247424D01*
X426266Y247094D02*X426596Y247424D01*
X425606Y247094D02*X426266D01*
X425276Y247424D02*X425606Y247094D01*
X435826Y252884D02*X437146D01*
X437476Y252554D01*
Y251894D01*
X437146Y251564D02*X437476Y251894D01*
X436156Y251564D02*X437146D01*
X436156Y252884D02*Y250244D01*
X436684Y251564D02*X437476Y250244D01*
X439258Y252884D02*X439588Y252554D01*
X438598Y252884D02*X439258D01*
X438268Y252554D02*X438598Y252884D01*
X438268Y252554D02*Y250574D01*
X438598Y250244D01*
X439258Y251696D02*X439588Y251366D01*
X438268Y251696D02*X439258D01*
X438598Y250244D02*X439258D01*
X439588Y250574D01*
Y251366D02*Y250574D01*
X436023Y244616D02*X437343D01*
X437673Y244286D01*
Y243626D01*
X437343Y243296D02*X437673Y243626D01*
X436353Y243296D02*X437343D01*
X436353Y244616D02*Y241976D01*
X436881Y243296D02*X437673Y241976D01*
X438795D02*X440115Y244616D01*
X438465D02*X440115D01*
X429921Y230836D02*X431241D01*
X431571Y230506D01*
Y229846D01*
X431241Y229516D02*X431571Y229846D01*
X430251Y229516D02*X431241D01*
X430251Y230836D02*Y228196D01*
X430779Y229516D02*X431571Y228196D01*
X432363Y230308D02*X432891Y230836D01*
Y228196D01*
X432363D02*X433353D01*
X434145Y230836D02*X435465D01*
X434145D02*Y229516D01*
X434475Y229846D01*
X435135D01*
X435465Y229516D01*
Y228526D01*
X435135Y228196D02*X435465Y228526D01*
X434475Y228196D02*X435135D01*
X434145Y228526D02*X434475Y228196D01*
X429921Y235561D02*X431241D01*
X431571Y235231D01*
Y234571D01*
X431241Y234241D02*X431571Y234571D01*
X430251Y234241D02*X431241D01*
X430251Y235561D02*Y232921D01*
X430779Y234241D02*X431571Y232921D01*
X432363Y235033D02*X432891Y235561D01*
Y232921D01*
X432363D02*X433353D01*
X434145Y233911D02*X435465Y235561D01*
X434145Y233911D02*X435795D01*
X435465Y235561D02*Y232921D01*
X467057Y237402D02*Y236082D01*
X466727Y235752D01*
X466067D02*X466727D01*
X465737Y236082D02*X466067Y235752D01*
X465737Y237072D02*Y236082D01*
X464417Y237072D02*X467057D01*
X465737Y236544D02*X464417Y235752D01*
X466529Y234960D02*X467057Y234432D01*
X464417D02*X467057D01*
X464417Y234960D02*Y233970D01*
X466529Y233178D02*X467057Y232650D01*
X464417D02*X467057D01*
X464417Y233178D02*Y232188D01*
X472175Y237402D02*Y236082D01*
X471845Y235752D01*
X471185D02*X471845D01*
X470855Y236082D02*X471185Y235752D01*
X470855Y237072D02*Y236082D01*
X469535Y237072D02*X472175D01*
X470855Y236544D02*X469535Y235752D01*
X471647Y234960D02*X472175Y234432D01*
X469535D02*X472175D01*
X469535Y234960D02*Y233970D01*
X471845Y233178D02*X472175Y232848D01*
Y231858D01*
X471845Y231528D01*
X471185D02*X471845D01*
X469535Y233178D02*X471185Y231528D01*
X469535Y233178D02*Y231528D01*
X461742Y237402D02*Y236082D01*
X461412Y235752D01*
X460752D02*X461412D01*
X460422Y236082D02*X460752Y235752D01*
X460422Y237072D02*Y236082D01*
X459102Y237072D02*X461742D01*
X460422Y236544D02*X459102Y235752D01*
X461214Y234960D02*X461742Y234432D01*
X459102D02*X461742D01*
X459102Y234960D02*Y233970D01*
X459432Y233178D02*X459102Y232848D01*
X459432Y233178D02*X461412D01*
X461742Y232848D01*
Y232188D01*
X461412Y231858D01*
X459432D02*X461412D01*
X459102Y232188D02*X459432Y231858D01*
X459102Y232848D02*Y232188D01*
X459762Y233178D02*X461082Y231858D01*
X458396Y237402D02*Y236082D01*
X458066Y235752D01*
X457406D02*X458066D01*
X457076Y236082D02*X457406Y235752D01*
X457076Y237072D02*Y236082D01*
X455756Y237072D02*X458396D01*
X457076Y236544D02*X455756Y235752D01*
Y234630D02*X457076Y233640D01*
X458066D01*
X458396Y233970D02*X458066Y233640D01*
X458396Y234630D02*Y233970D01*
X458066Y234960D02*X458396Y234630D01*
X457406Y234960D02*X458066D01*
X457406D02*X457076Y234630D01*
Y233640D01*
X477884Y237402D02*Y236082D01*
X477554Y235752D01*
X476894D02*X477554D01*
X476564Y236082D02*X476894Y235752D01*
X476564Y237072D02*Y236082D01*
X475244Y237072D02*X477884D01*
X476564Y236544D02*X475244Y235752D01*
X477356Y234960D02*X477884Y234432D01*
X475244D02*X477884D01*
X475244Y234960D02*Y233970D01*
X477554Y233178D02*X477884Y232848D01*
Y232188D01*
X477554Y231858D01*
X475244Y232188D02*X475574Y231858D01*
X475244Y232848D02*Y232188D01*
X475574Y233178D02*X475244Y232848D01*
X476696D02*Y232188D01*
X477026Y231858D02*X477554D01*
X475574D02*X476366D01*
X476696Y232188D01*
X477026Y231858D02*X476696Y232188D01*
X452293Y237796D02*Y236476D01*
X451963Y236146D01*
X451303D02*X451963D01*
X450973Y236476D02*X451303Y236146D01*
X450973Y237466D02*Y236476D01*
X449653Y237466D02*X452293D01*
X450973Y236938D02*X449653Y236146D01*
X449983Y235354D02*X449653Y235024D01*
X449983Y235354D02*X450511D01*
X450973Y234892D01*
Y234496D01*
X450511Y234034D01*
X449983D02*X450511D01*
X449653Y234364D02*X449983Y234034D01*
X449653Y235024D02*Y234364D01*
X451435Y235354D02*X450973Y234892D01*
X451435Y235354D02*X451963D01*
X452293Y235024D01*
Y234364D01*
X451963Y234034D01*
X451435D02*X451963D01*
X450973Y234496D02*X451435Y234034D01*
X447244Y258051D02*X447854D01*
X447549D02*Y255611D01*
X447244D02*X447854D01*
X449013D02*X449806D01*
X448586Y256038D02*X449013Y255611D01*
X448586Y257624D02*Y256038D01*
Y257624D02*X449013Y258051D01*
X449806D01*
X450538Y257746D02*X450843Y258051D01*
X451758D01*
X452063Y257746D01*
Y257136D01*
X450538Y255611D02*X452063Y257136D01*
X450538Y255611D02*X452063D01*
X464635Y257330D02*X465493D01*
X464173Y257792D02*X464635Y257330D01*
X464173Y259508D02*Y257792D01*
Y259508D02*X464635Y259970D01*
X465493D01*
X466285D02*X467605D01*
X466285D02*Y258650D01*
X466615Y258980D01*
X467275D01*
X467605Y258650D01*
Y257660D01*
X467275Y257330D02*X467605Y257660D01*
X466615Y257330D02*X467275D01*
X466285Y257660D02*X466615Y257330D01*
X456732Y251490D02*X458052D01*
X458382Y251160D01*
Y250500D01*
X458052Y250170D02*X458382Y250500D01*
X457062Y250170D02*X458052D01*
X457062Y251490D02*Y248850D01*
X457590Y250170D02*X458382Y248850D01*
X459174Y251160D02*X459504Y251490D01*
X460494D01*
X460824Y251160D01*
Y250500D01*
X459174Y248850D02*X460824Y250500D01*
X459174Y248850D02*X460824D01*
X461616Y250962D02*X462144Y251490D01*
Y248850D01*
X461616D02*X462606D01*
M02*
